<svg version="1.1" id="bjb_tandamata_untuk_negeri_xA0_Image_00000145764713745115501260000013082547408987692200_"
	 xmlns="http://www.w3.org/2000/svg" xmlns:xlink="http://www.w3.org/1999/xlink" x="0px" y="0px" viewBox="0 0 842.16 595.68"
	 style="enable-background:new 0 0 842.16 595.68;" xml:space="preserve">
<style type="text/css">
	.st0{fill:#175882;}
	
		.st1{clip-path:url(#SVGID_00000044868302830295183370000001386663351539243669_);fill:url(#SVGID_00000094609033394827914390000018145401734038065848_);}
</style>
<g>
	<g>
		<path class="st0" d="M122.9,459.76h-12.1v-4.37h29.46v4.37H128.1v35.42h-5.2V459.76z"/>
		<path class="st0" d="M156.55,495.18l-0.41-3.6h-0.18c-1.59,2.24-4.66,4.25-8.74,4.25c-5.79,0-8.74-4.07-8.74-8.21
			c0-6.91,6.14-10.69,17.18-10.63v-0.59c0-2.36-0.65-6.61-6.49-6.61c-2.66,0-5.43,0.83-7.44,2.12l-1.18-3.42
			c2.36-1.54,5.79-2.54,9.39-2.54c8.74,0,10.86,5.96,10.86,11.69v10.69c0,2.48,0.12,4.9,0.47,6.85H156.55z M155.78,480.6
			c-5.67-0.12-12.1,0.89-12.1,6.43c0,3.37,2.24,4.96,4.9,4.96c3.72,0,6.08-2.36,6.91-4.78c0.18-0.53,0.29-1.12,0.29-1.65V480.6z"/>
		<path class="st0" d="M169.18,474.34c0-2.95-0.06-5.37-0.24-7.73h4.6l0.3,4.72h0.12c1.42-2.72,4.72-5.37,9.45-5.37
			c3.96,0,10.1,2.36,10.1,12.16v17.06h-5.2v-16.47c0-4.61-1.71-8.44-6.61-8.44c-3.42,0-6.08,2.42-6.97,5.31
			c-0.24,0.65-0.35,1.53-0.35,2.42v17.18h-5.2V474.34z"/>
		<path class="st0" d="M226.62,453.27v34.54c0,2.54,0.06,5.43,0.24,7.38h-4.66l-0.24-4.96h-0.12c-1.59,3.19-5.08,5.61-9.74,5.61
			c-6.91,0-12.22-5.84-12.22-14.52c-0.06-9.5,5.84-15.35,12.81-15.35c4.37,0,7.32,2.07,8.62,4.37h0.12v-17.06H226.62z
			 M221.43,478.24c0-0.65-0.06-1.54-0.24-2.18c-0.77-3.31-3.6-6.02-7.5-6.02c-5.37,0-8.56,4.72-8.56,11.04
			c0,5.79,2.83,10.57,8.44,10.57c3.48,0,6.67-2.3,7.62-6.2c0.18-0.71,0.24-1.42,0.24-2.24V478.24z"/>
		<path class="st0" d="M251.06,495.18l-0.41-3.6h-0.18c-1.59,2.24-4.66,4.25-8.74,4.25c-5.79,0-8.74-4.07-8.74-8.21
			c0-6.91,6.14-10.69,17.18-10.63v-0.59c0-2.36-0.65-6.61-6.49-6.61c-2.66,0-5.43,0.83-7.44,2.12l-1.18-3.42
			c2.36-1.54,5.79-2.54,9.39-2.54c8.74,0,10.86,5.96,10.86,11.69v10.69c0,2.48,0.12,4.9,0.47,6.85H251.06z M250.3,480.6
			c-5.67-0.12-12.1,0.89-12.1,6.43c0,3.37,2.24,4.96,4.9,4.96c3.72,0,6.08-2.36,6.91-4.78c0.18-0.53,0.29-1.12,0.29-1.65V480.6z"/>
		<path class="st0" d="M263.7,474.34c0-2.95-0.06-5.37-0.24-7.73h4.55l0.24,4.6h0.18c1.59-2.72,4.25-5.25,8.97-5.25
			c3.9,0,6.85,2.36,8.09,5.73h0.12c0.89-1.59,2.01-2.83,3.19-3.72c1.71-1.3,3.6-2.01,6.32-2.01c3.78,0,9.39,2.48,9.39,12.4v16.83
			h-5.08v-16.18c0-5.49-2.01-8.8-6.2-8.8c-2.95,0-5.25,2.18-6.14,4.72c-0.24,0.71-0.41,1.65-0.41,2.6v17.65h-5.08v-17.12
			c0-4.55-2.01-7.85-5.96-7.85c-3.25,0-5.61,2.6-6.44,5.2c-0.29,0.77-0.41,1.65-0.41,2.54v17.24h-5.08V474.34z"/>
		<path class="st0" d="M328.75,495.18l-0.41-3.6h-0.18c-1.59,2.24-4.66,4.25-8.74,4.25c-5.79,0-8.74-4.07-8.74-8.21
			c0-6.91,6.14-10.69,17.18-10.63v-0.59c0-2.36-0.65-6.61-6.49-6.61c-2.66,0-5.43,0.83-7.44,2.12l-1.18-3.42
			c2.36-1.54,5.79-2.54,9.39-2.54c8.74,0,10.86,5.96,10.86,11.69v10.69c0,2.48,0.12,4.9,0.47,6.85H328.75z M327.98,480.6
			c-5.67-0.12-12.1,0.89-12.1,6.43c0,3.37,2.24,4.96,4.9,4.96c3.72,0,6.08-2.36,6.91-4.78c0.18-0.53,0.29-1.12,0.29-1.65V480.6z"/>
		<path class="st0" d="M347.41,458.4v8.21h7.44v3.96h-7.44v15.41c0,3.54,1,5.55,3.9,5.55c1.36,0,2.36-0.18,3.01-0.35l0.24,3.9
			c-1,0.41-2.6,0.71-4.6,0.71c-2.42,0-4.37-0.77-5.61-2.18c-1.48-1.54-2.01-4.07-2.01-7.44v-15.59h-4.43v-3.96h4.43v-6.85
			L347.41,458.4z"/>
		<path class="st0" d="M376.51,495.18l-0.41-3.6h-0.18c-1.59,2.24-4.66,4.25-8.74,4.25c-5.79,0-8.74-4.07-8.74-8.21
			c0-6.91,6.14-10.69,17.18-10.63v-0.59c0-2.36-0.65-6.61-6.49-6.61c-2.66,0-5.43,0.83-7.44,2.12l-1.18-3.42
			c2.36-1.54,5.79-2.54,9.39-2.54c8.74,0,10.86,5.96,10.86,11.69v10.69c0,2.48,0.12,4.9,0.47,6.85H376.51z M375.74,480.6
			c-5.67-0.12-12.1,0.89-12.1,6.43c0,3.37,2.24,4.96,4.9,4.96c3.72,0,6.08-2.36,6.91-4.78c0.18-0.53,0.29-1.12,0.29-1.65V480.6z"/>
		<path class="st0" d="M406.97,455.39v23.55c0,8.92,3.96,12.69,9.27,12.69c5.9,0,9.68-3.9,9.68-12.69v-23.55h5.2v23.2
			c0,12.22-6.44,17.24-15.05,17.24c-8.15,0-14.29-4.66-14.29-17v-23.44H406.97z"/>
		<path class="st0" d="M439.85,474.34c0-2.95-0.06-5.37-0.24-7.73h4.61l0.29,4.72h0.12c1.42-2.72,4.72-5.37,9.45-5.37
			c3.96,0,10.1,2.36,10.1,12.16v17.06h-5.2v-16.47c0-4.61-1.71-8.44-6.61-8.44c-3.42,0-6.08,2.42-6.97,5.31
			c-0.24,0.65-0.35,1.53-0.35,2.42v17.18h-5.2V474.34z"/>
		<path class="st0" d="M478.64,458.4v8.21h7.44v3.96h-7.44v15.41c0,3.54,1,5.55,3.9,5.55c1.36,0,2.36-0.18,3.01-0.35l0.24,3.9
			c-1,0.41-2.6,0.71-4.6,0.71c-2.42,0-4.37-0.77-5.61-2.18c-1.48-1.54-2.01-4.07-2.01-7.44v-15.59h-4.43v-3.96h4.43v-6.85
			L478.64,458.4z"/>
		<path class="st0" d="M515.83,487.39c0,2.95,0.06,5.55,0.24,7.79h-4.6l-0.29-4.66h-0.12c-1.36,2.3-4.37,5.31-9.45,5.31
			c-4.49,0-9.86-2.48-9.86-12.52v-16.71h5.2v15.82c0,5.43,1.65,9.09,6.38,9.09c3.48,0,5.9-2.42,6.85-4.72
			c0.29-0.77,0.47-1.71,0.47-2.66v-17.53h5.2V487.39z"/>
		<path class="st0" d="M529.58,479.72h0.12c0.71-1,1.71-2.24,2.54-3.25l8.38-9.86h6.26l-11.04,11.75l12.57,16.83h-6.32l-9.86-13.7
			l-2.66,2.95v10.74h-5.14v-41.92h5.14V479.72z"/>
		<path class="st0" d="M564.83,495.18v-39.79h5.61l12.75,20.13c2.95,4.66,5.25,8.86,7.14,12.93l0.12-0.06
			c-0.47-5.31-0.59-10.15-0.59-16.35v-16.65h4.84v39.79h-5.2l-12.63-20.19c-2.77-4.43-5.43-8.97-7.44-13.28l-0.18,0.06
			c0.3,5.02,0.41,9.8,0.41,16.41v17H564.83z"/>
		<path class="st0" d="M606.39,481.84c0.12,7.03,4.61,9.92,9.8,9.92c3.72,0,5.96-0.65,7.91-1.48l0.89,3.72
			c-1.83,0.83-4.96,1.77-9.5,1.77c-8.8,0-14.05-5.79-14.05-14.41s5.08-15.41,13.4-15.41c9.33,0,11.81,8.21,11.81,13.46
			c0,1.06-0.12,1.89-0.18,2.42H606.39z M621.62,478.12c0.06-3.31-1.36-8.44-7.2-8.44c-5.25,0-7.56,4.84-7.97,8.44H621.62z"/>
		<path class="st0" d="M657.69,466.61c-0.12,2.07-0.24,4.37-0.24,7.85v16.59c0,6.55-1.3,10.57-4.07,13.05
			c-2.77,2.6-6.79,3.42-10.39,3.42c-3.42,0-7.2-0.83-9.5-2.36l1.3-3.96c1.89,1.18,4.84,2.24,8.38,2.24c5.31,0,9.21-2.77,9.21-9.98
			v-3.19h-0.12c-1.59,2.66-4.66,4.78-9.09,4.78c-7.08,0-12.16-6.02-12.16-13.93c0-9.68,6.32-15.17,12.87-15.17
			c4.96,0,7.67,2.6,8.91,4.96h0.12l0.24-4.31H657.69z M652.32,477.89c0-0.89-0.06-1.65-0.29-2.36c-0.95-3.01-3.48-5.49-7.26-5.49
			c-4.96,0-8.5,4.19-8.5,10.8c0,5.61,2.83,10.27,8.44,10.27c3.19,0,6.08-2.01,7.2-5.31c0.29-0.89,0.41-1.89,0.41-2.77V477.89z"/>
		<path class="st0" d="M668.96,481.84c0.12,7.03,4.61,9.92,9.8,9.92c3.72,0,5.96-0.65,7.91-1.48l0.89,3.72
			c-1.83,0.83-4.96,1.77-9.5,1.77c-8.8,0-14.05-5.79-14.05-14.41s5.08-15.41,13.4-15.41c9.33,0,11.81,8.21,11.81,13.46
			c0,1.06-0.12,1.89-0.18,2.42H668.96z M684.19,478.12c0.06-3.31-1.36-8.44-7.2-8.44c-5.25,0-7.56,4.84-7.97,8.44H684.19z"/>
		<path class="st0" d="M695.64,475.52c0-3.37-0.06-6.26-0.24-8.91h4.55l0.18,5.61h0.24c1.3-3.84,4.43-6.26,7.91-6.26
			c0.59,0,1,0.06,1.48,0.18v4.9c-0.53-0.12-1.06-0.18-1.77-0.18c-3.66,0-6.26,2.78-6.97,6.67c-0.12,0.71-0.24,1.53-0.24,2.42v15.23
			h-5.14V475.52z"/>
		<path class="st0" d="M720.97,458.58c0.06,1.77-1.24,3.19-3.31,3.19c-1.83,0-3.13-1.42-3.13-3.19c0-1.83,1.36-3.25,3.25-3.25
			C719.73,455.33,720.97,456.75,720.97,458.58z M715.18,495.18v-28.57h5.2v28.57H715.18z"/>
	</g>
	<g>
		<g>
			<g>
				<defs>
					<path id="SVGID_1_" d="M303.63,220.28l-4.15,20.34c39.72-0.77,169.81-47.5,175.79-75.75l1.97-9.66
						C432.5,186.31,339.66,220.48,303.63,220.28 M312.04,186.11l-3.87,18.73c39.48-0.08,169.8-47.51,175.79-75.76l1.65-8.09
						C427.89,160.97,347.05,185.13,312.04,186.11 M319.85,150.99l-4.15,20.35c40.96-0.16,169.81-47.51,175.79-75.76
						c0,0,0.39-1.85,0.78-3.71c0.39-1.86,0.76-3.72,0.74-3.72C437.19,125.72,352.86,150.91,319.85,150.99"/>
				</defs>
				<clipPath id="SVGID_00000038410387786365749120000006530470338909056660_">
					<use xlink:href="#SVGID_1_"  style="overflow:visible;"/>
				</clipPath>
				
					<linearGradient id="SVGID_00000132049841003572652940000007167085313891152290_" gradientUnits="userSpaceOnUse" x1="299.4818" y1="168.1165" x2="494.305" y2="168.1165">
					<stop  offset="0" style="stop-color:#30A6DE"/>
					<stop  offset="0.2252" style="stop-color:#195F89"/>
					<stop  offset="0.4519" style="stop-color:#195F89"/>
					<stop  offset="0.4712" style="stop-color:#316386"/>
					<stop  offset="0.5456" style="stop-color:#667779"/>
					<stop  offset="0.6213" style="stop-color:#8C8B6B"/>
					<stop  offset="0.6971" style="stop-color:#AC9E59"/>
					<stop  offset="0.7727" style="stop-color:#C6AF45"/>
					<stop  offset="0.8484" style="stop-color:#DABC32"/>
					<stop  offset="0.9241" style="stop-color:#E6C422"/>
					<stop  offset="1" style="stop-color:#EAC71C"/>
				</linearGradient>
				
					<rect x="299.48" y="88.16" style="clip-path:url(#SVGID_00000038410387786365749120000006530470338909056660_);fill:url(#SVGID_00000132049841003572652940000007167085313891152290_);" width="194.82" height="159.92"/>
			</g>
		</g>
		<path class="st0" d="M121.34,371.72c0,1.89,0.34,3.77,0.69,5.5c2.92,10.48,11.68,17.71,22.69,17.71
			c15.82,0,25.27-12.9,25.27-31.98c0-16.67-8.6-30.94-24.76-30.94c-10.32,0-19.95,7.05-23.04,18.57c-0.34,1.72-0.85,3.77-0.85,6.19
			V371.72z M106.38,283.02h14.96v52.26h0.34c5.33-9.28,14.96-15.3,28.37-15.3c20.64,0,35.24,17.18,35.06,42.47
			c0,29.72-18.73,44.51-37.3,44.51c-12.04,0-21.67-4.64-27.85-15.64h-0.52l-0.67,13.75H105.7c0.35-5.68,0.69-14.11,0.69-21.49
			V283.02z"/>
		<path class="st0" d="M245.98,362.6c-16.51-0.35-35.24,2.59-35.24,18.74c0,9.8,6.53,14.46,14.26,14.46
			c10.84,0,17.71-6.89,20.12-13.93c0.52-1.56,0.87-3.27,0.87-4.81V362.6z M260.59,385.13c0,7.23,0.34,14.27,1.37,19.95h-13.75
			l-1.21-10.49h-0.51c-4.65,6.54-13.59,12.38-25.44,12.38c-16.85,0-25.44-11.85-25.44-23.89c0-20.12,17.87-31.13,50.01-30.94v-1.73
			c0-6.87-1.89-19.25-18.9-19.25c-7.75,0-15.82,2.4-21.67,6.19l-3.44-9.97c6.88-4.46,16.87-7.39,27.34-7.39
			c25.45,0,31.64,17.36,31.64,34.03V385.13z"/>
		<path class="st0" d="M283.81,405.06h15.11v-50.01c0-2.59,0.35-5.18,1.03-7.06c2.58-8.42,10.32-15.48,20.29-15.48
			c14.28,0,19.25,11.18,19.25,24.59v47.96h15.13v-49.68c0-28.53-17.89-35.41-29.39-35.41c-13.76,0-23.38,7.75-27.51,15.64h-0.34
			l-0.87-13.75h-13.4c0.51,6.89,0.69,13.92,0.69,22.51V405.06z"/>
		<path class="st0" d="M391.76,283.02H376.8v122.04h14.96v-31.28l7.74-8.59l28.71,39.87h18.38l-36.61-48.98l32.15-34.22h-18.22
			l-24.41,28.71c-2.42,2.92-5.33,6.53-7.4,9.46h-0.34V283.02z"/>
		<path class="st0" d="M537.06,388.32c-12.13,0-21.97-13.07-21.97-29.18c0-16.12,9.84-29.18,21.97-29.18
			c12.12,0,21.95,13.07,21.95,29.18C559.01,375.24,549.18,388.32,537.06,388.32 M571.24,324.81c-0.56-0.67-1.12-1.35-1.72-1.96
			c-0.97-1.02-2.06-1.97-3.22-2.86c-6.26-5.12-13.82-8.13-21.98-8.13c-8.8,0-16.9,3.53-23.43,9.41c-0.19,0.12-0.36,0.25-0.55,0.36
			c-0.23,0.13-0.56,0.29-0.95,0.19c-1.07-0.28-2.22-1.42-2.22-3.06v-34.02c0-2.14-1.75-3.86-3.9-3.86h-16.56
			c-2.16,0-3.9,1.73-3.9,3.86v1.18c0,0.05-0.01,0.09-0.01,0.13V290l0.03,109.68c0,2.18,1.76,3.94,3.93,3.94h14.99
			c0.95,0,1.82-0.36,2.5-0.93c0.03-0.02,0.06-0.02,0.07-0.03c0.03-0.02,0.03-0.04,0.05-0.06c0.32-0.28,0.57-0.62,0.78-0.98h0.01
			c0.26-0.48,0.43-0.99,0.49-1.56c0.3-2.42,1.95-3.76,2.97-3.42c0.35,0.11,0.69,0.28,1.03,0.53c0.35,0.22,0.7,0.45,1.03,0.67
			c1.02,0.75,5.48,3.8,8.94,5.35c1.75,0.77,7.3,2.66,13.76,2.66c6.46,0,11.04-1.43,12.13-1.72c1.09-0.29,2.16-0.65,3.18-1.13
			c5.05-2.17,9.12-5.16,12.2-8.94c3.05-3.71,5.59-8.11,7.64-13.16c3.05-6.64,4.79-14.27,4.79-22.39
			C583.31,345.24,578.67,333.3,571.24,324.81"/>
		<path class="st0" d="M626.41,321.63c-0.02-0.22-0.04-0.44-0.06-0.65v-2.91c0-2.19-1.77-3.96-3.95-3.96h-16.68
			c-2.19,0-3.96,1.77-3.96,3.96v89.89c-0.09,2.29-2.87,5.42-6.09,6.2c-1.48,0.46-2.96,0.67-4.46,0.6c-1.49-0.05-2.52,0.55-3.1,1.81
			c-0.22,0.56-0.39,1.31-0.52,2.24c-0.1,0.92,0.03,10.55,0.1,11.35c0.06,0.8,0.2,1.48,0.42,2.06c0.69,1.03,1.9,1.72,3.61,2.07
			c0.57,0.24,11.66,0.26,19.1-1.54c2.93-0.7,5.28-2.12,7.24-3.6c1.93-1.5,3.66-3.39,5.16-5.69c1.72-2.75,2.67-6.21,2.84-10.4
			c0.05-1.26,0.29-4.56,0.29-4.95v-81.67c0.02-0.44,0.03-0.88,0.06-1.36C626.47,323.93,626.47,322.78,626.41,321.63"/>
		<path class="st0" d="M690.21,388.32c-12.13,0-21.97-13.07-21.97-29.18c0-16.12,9.83-29.18,21.97-29.18
			c12.12,0,21.95,13.07,21.95,29.18C712.16,375.24,702.34,388.32,690.21,388.32 M724.39,324.81c-0.56-0.67-1.11-1.35-1.72-1.96
			c-0.97-1.02-2.07-1.97-3.22-2.86c-6.26-5.12-13.82-8.13-21.99-8.13c-8.79,0-16.89,3.53-23.42,9.41c-0.2,0.12-0.36,0.25-0.56,0.36
			c-0.23,0.13-0.55,0.29-0.94,0.19c-1.07-0.28-2.22-1.42-2.24-3.06v-34.02c0-2.14-1.75-3.86-3.89-3.86h-16.55
			c-2.16,0-3.91,1.73-3.91,3.86v1.18c0,0.05-0.01,0.09-0.01,0.13V290l0.02,109.68c0,2.18,1.77,3.94,3.94,3.94h14.97
			c0.97,0,1.84-0.36,2.52-0.93c0.02-0.02,0.04-0.02,0.06-0.03c0.03-0.02,0.03-0.04,0.06-0.06c0.3-0.28,0.57-0.62,0.78-0.98
			l0.01-0.02c0.25-0.47,0.43-0.97,0.48-1.54c0.3-2.42,1.94-3.76,2.97-3.42c0.35,0.11,0.7,0.28,1.04,0.53
			c0.34,0.22,0.68,0.45,1.03,0.67c1.01,0.75,5.48,3.8,8.94,5.35c1.75,0.77,7.3,2.66,13.76,2.66c6.45,0,11.03-1.43,12.12-1.72
			c1.09-0.29,2.15-0.65,3.18-1.13c5.04-2.17,9.12-5.16,12.21-8.94c3.05-3.71,5.58-8.11,7.63-13.16c3.04-6.64,4.78-14.27,4.78-22.39
			C736.46,345.24,731.81,333.3,724.39,324.81"/>
		<path class="st0" d="M613.77,281.87c-2.37,0.03-4.46,0.57-6.26,1.62c-1.76,1.08-3.13,2.52-4.1,4.28c-1.01,1.8-1.51,3.77-1.51,5.97
			c0,2.12,0.5,4.03,1.44,5.8c0.93,1.75,2.27,3.16,3.95,4.24c1.73,1.04,3.74,1.58,6.05,1.62c2.59-0.03,4.78-0.58,6.58-1.62
			c1.8-1.08,3.16-2.48,4.1-4.24c0.94-1.76,1.4-3.68,1.4-5.8c0-2.19-0.5-4.17-1.44-5.97c-0.93-1.76-2.3-3.2-4.03-4.28
			C618.23,282.44,616.14,281.9,613.77,281.87"/>
	</g>
</g>
</svg>
