<?xml version="1.0" encoding="UTF-8"?>
<svg xmlns="http://www.w3.org/2000/svg" xmlns:xlink="http://www.w3.org/1999/xlink" width="115px" height="44px" viewBox="0 0 116 44" version="1.1">
<defs>
<filter id="alpha" filterUnits="objectBoundingBox" x="0%" y="0%" width="100%" height="100%">
  <feColorMatrix type="matrix" in="SourceGraphic" values="0 0 0 0 1 0 0 0 0 1 0 0 0 0 1 0 0 0 1 0"/>
</filter>
<mask id="mask0">
  <g filter="url(#alpha)">
<rect x="0" y="0" width="116" height="44" style="fill:rgb(0%,0%,0%);fill-opacity:0.996078;stroke:none;"/>
  </g>
</mask>
<clipPath id="clip1">
  <rect x="0" y="0" width="116" height="44"/>
</clipPath>
<g id="surface5" clip-path="url(#clip1)">
<path style=" stroke:none;fill-rule:evenodd;fill:rgb(0%,32.156863%,61.176471%);fill-opacity:1;" d="M 7.183594 -0.0234375 C 15.351562 -0.0234375 23.523438 -0.0234375 31.695312 -0.0234375 C 33.605469 0.0078125 35.527344 0.0429688 37.449219 0.0898438 C 39.738281 0.582031 41.527344 1.800781 42.820312 3.746094 C 43.269531 4.480469 43.585938 5.265625 43.773438 6.105469 C 43.824219 10.265625 43.863281 14.417969 43.886719 18.570312 C 43.851562 24.867188 43.8125 31.171875 43.773438 37.484375 C 43.503906 38.945312 42.882812 40.234375 41.914062 41.34375 C 41.058594 42.355469 40.023438 43.117188 38.808594 43.636719 C 38.441406 43.75 38.078125 43.863281 37.722656 43.976562 C 27.390625 43.976562 17.058594 43.976562 6.730469 43.976562 C 4.300781 43.507812 2.40625 42.234375 1.042969 40.164062 C 0.265625 38.886719 -0.0859375 37.511719 -0.0234375 36.03125 C -0.0234375 29.703125 -0.0234375 23.378906 -0.0234375 17.050781 C 0.015625 13.820312 0.0390625 10.578125 0.046875 7.332031 C 0.246094 5.011719 1.222656 3.097656 2.96875 1.589844 C 4.222656 0.652344 5.628906 0.117188 7.183594 -0.0234375 Z M 21.773438 4.246094 C 22.710938 4.253906 23.644531 4.277344 24.582031 4.3125 C 26.410156 4.507812 27.882812 5.332031 29 6.789062 C 29.699219 7.886719 29.925781 9.082031 29.679688 10.375 C 29.601562 10.824219 29.449219 11.25 29.226562 11.648438 C 28.914062 12.140625 28.566406 12.609375 28.183594 13.054688 C 26.253906 15.214844 24.191406 17.238281 22 19.117188 C 21.171875 19.898438 20.394531 20.726562 19.664062 21.589844 C 19.570312 21.714844 19.542969 21.851562 19.574219 22 C 24.34375 27.019531 29.175781 31.984375 34.074219 36.894531 C 34.902344 37.722656 35.695312 38.578125 36.453125 39.460938 C 31.320312 39.558594 26.183594 39.582031 21.046875 39.527344 C 21.484375 38.863281 21.902344 38.179688 22.292969 37.484375 C 22.769531 36.464844 22.988281 35.386719 22.949219 34.261719 C 22.972656 32.300781 22.359375 30.578125 21.117188 29.082031 C 18.902344 26.714844 16.691406 24.347656 14.476562 21.976562 C 14.9375 21.410156 15.410156 20.859375 15.90625 20.320312 C 17.015625 19.296875 18.125 18.277344 19.234375 17.253906 C 20.460938 16.105469 21.417969 14.765625 22.113281 13.234375 C 22.609375 11.902344 22.777344 10.523438 22.609375 9.105469 C 22.539062 8.15625 22.3125 7.246094 21.929688 6.378906 C 21.53125 5.707031 21.128906 5.03125 20.730469 4.359375 C 21.082031 4.3125 21.429688 4.273438 21.773438 4.246094 Z M 8.496094 4.292969 C 9.796875 4.269531 11.09375 4.292969 12.394531 4.359375 C 14.6875 4.722656 16.25 5.988281 17.082031 8.152344 C 17.527344 9.703125 17.390625 11.203125 16.675781 12.644531 C 16.101562 13.660156 15.40625 14.582031 14.589844 15.414062 C 13.085938 16.894531 11.550781 18.339844 9.992188 19.753906 C 9.347656 20.367188 8.734375 21.011719 8.15625 21.683594 C 8.097656 21.792969 8.042969 21.90625 7.996094 22.023438 C 8.078125 22.191406 8.175781 22.351562 8.292969 22.5 C 8.605469 22.839844 8.90625 23.1875 9.199219 23.542969 C 11.269531 25.652344 13.308594 27.785156 15.316406 29.945312 C 16.703125 31.507812 17.199219 33.324219 16.8125 35.394531 C 16.273438 36.964844 15.296875 38.183594 13.886719 39.050781 C 13.558594 39.238281 13.210938 39.390625 12.847656 39.503906 C 10.894531 39.546875 8.949219 39.535156 7 39.460938 C 5.949219 39.117188 5.15625 38.460938 4.621094 37.484375 C 4.574219 37.335938 4.542969 37.183594 4.53125 37.03125 C 4.476562 35.136719 4.445312 33.246094 4.441406 31.355469 C 4.433594 27.628906 4.425781 23.90625 4.417969 20.183594 C 4.414062 15.792969 4.4375 11.40625 4.484375 7.015625 C 4.75 6.085938 5.300781 5.382812 6.140625 4.902344 C 6.878906 4.5 7.664062 4.296875 8.496094 4.292969 Z M 32.691406 4.292969 C 33.71875 4.285156 34.746094 4.308594 35.773438 4.359375 C 37.71875 4.539062 38.875 5.589844 39.242188 7.515625 C 39.269531 7.667969 39.300781 7.816406 39.332031 7.96875 C 39.515625 17.214844 39.578125 26.464844 39.511719 35.714844 C 35.40625 31.492188 31.28125 27.285156 27.140625 23.089844 C 26.761719 22.6875 26.390625 22.277344 26.03125 21.863281 C 26.0625 21.746094 26.113281 21.640625 26.191406 21.546875 C 26.449219 21.257812 26.703125 20.972656 26.960938 20.683594 C 28.246094 19.4375 29.550781 18.21875 30.878906 17.027344 C 31.769531 16.167969 32.59375 15.25 33.351562 14.28125 C 34.125 13.265625 34.535156 12.117188 34.574219 10.828125 C 34.679688 9.890625 34.664062 8.949219 34.527344 8.015625 C 34.394531 7.328125 34.140625 6.691406 33.757812 6.105469 C 33.292969 5.539062 32.847656 4.953125 32.421875 4.359375 C 32.519531 4.351562 32.613281 4.328125 32.691406 4.292969 Z M 32.691406 4.292969 "/>
</g>
<mask id="mask1">
  <g filter="url(#alpha)">
<rect x="0" y="0" width="116" height="44" style="fill:rgb(0%,0%,0%);fill-opacity:0.996078;stroke:none;"/>
  </g>
</mask>
<clipPath id="clip2">
  <rect x="0" y="0" width="116" height="44"/>
</clipPath>
<g id="surface8" clip-path="url(#clip2)">
<path style=" stroke:none;fill-rule:evenodd;fill:rgb(0%,32.156863%,60.784314%);fill-opacity:1;" d="M 48.097656 3.429688 C 52.917969 3.421875 57.734375 3.429688 62.554688 3.449219 C 65.027344 3.496094 67.320312 4.144531 69.441406 5.402344 C 71.683594 6.855469 73.050781 8.90625 73.542969 11.554688 C 74.085938 14.09375 73.601562 16.410156 72.09375 18.503906 C 71.71875 18.988281 71.316406 19.449219 70.890625 19.886719 C 75.042969 23.253906 76.4375 27.546875 75.082031 32.761719 C 74.105469 35.859375 72.121094 38.03125 69.125 39.277344 C 67.410156 39.960938 65.625 40.324219 63.777344 40.367188 C 58.550781 40.390625 53.324219 40.398438 48.097656 40.390625 C 48.097656 28.070312 48.097656 15.75 48.097656 3.429688 Z M 54.988281 9.785156 C 57.265625 9.777344 59.546875 9.785156 61.828125 9.808594 C 62.953125 9.804688 64.011719 10.0625 65 10.578125 C 66.171875 11.382812 66.761719 12.503906 66.769531 13.941406 C 66.769531 15.453125 66.253906 16.753906 65.226562 17.84375 C 61.8125 17.867188 58.398438 17.875 54.988281 17.867188 C 54.988281 15.171875 54.988281 12.480469 54.988281 9.785156 Z M 54.988281 24.316406 C 58.023438 24.308594 61.058594 24.316406 64.09375 24.339844 C 66.929688 24.636719 68.4375 26.210938 68.625 29.0625 C 68.589844 30.585938 67.984375 31.828125 66.8125 32.785156 C 66.152344 33.234375 65.429688 33.539062 64.636719 33.691406 C 64.097656 33.789062 63.554688 33.851562 63.007812 33.875 C 60.332031 33.898438 57.660156 33.90625 54.988281 33.898438 C 54.988281 30.703125 54.988281 27.507812 54.988281 24.316406 Z M 54.988281 24.316406 "/>
</g>
<mask id="mask2">
  <g filter="url(#alpha)">
<rect x="0" y="0" width="116" height="44" style="fill:rgb(0%,0%,0%);fill-opacity:0.996078;stroke:none;"/>
  </g>
</mask>
<clipPath id="clip3">
  <rect x="0" y="0" width="116" height="44"/>
</clipPath>
<g id="surface11" clip-path="url(#clip3)">
<path style=" stroke:none;fill-rule:evenodd;fill:rgb(0%,32.156863%,61.176471%);fill-opacity:1;" d="M 77.960938 3.429688 C 83.140625 3.421875 88.320312 3.429688 93.503906 3.449219 C 95.871094 3.507812 98.109375 4.082031 100.207031 5.175781 C 103 6.761719 104.683594 9.144531 105.261719 12.328125 C 105.796875 15.304688 105.371094 18.136719 103.992188 20.820312 C 102.292969 23.582031 99.867188 25.375 96.71875 26.199219 C 100.039062 30.914062 103.347656 35.636719 106.644531 40.367188 C 103.894531 40.40625 101.144531 40.398438 98.394531 40.34375 C 95.210938 35.804688 92.023438 31.261719 88.835938 26.722656 C 87.535156 26.675781 86.238281 26.660156 84.9375 26.675781 C 84.9375 31.246094 84.9375 35.820312 84.9375 40.390625 C 82.613281 40.390625 80.285156 40.390625 77.960938 40.390625 C 77.960938 28.070312 77.960938 15.75 77.960938 3.429688 Z M 84.9375 9.785156 C 87.597656 9.777344 90.253906 9.785156 92.914062 9.808594 C 94.800781 9.820312 96.335938 10.554688 97.511719 12.011719 C 98.078125 12.835938 98.375 13.753906 98.394531 14.757812 C 98.273438 17.621094 96.824219 19.390625 94.046875 20.070312 C 93.703125 20.140625 93.355469 20.1875 93.003906 20.207031 C 90.316406 20.230469 87.625 20.238281 84.9375 20.230469 C 84.9375 16.746094 84.9375 13.265625 84.9375 9.785156 Z M 84.9375 9.785156 "/>
</g>
<mask id="mask3">
  <g filter="url(#alpha)">
<rect x="0" y="0" width="116" height="44" style="fill:rgb(0%,0%,0%);fill-opacity:0.992157;stroke:none;"/>
  </g>
</mask>
<clipPath id="clip4">
  <rect x="0" y="0" width="116" height="44"/>
</clipPath>
<g id="surface14" clip-path="url(#clip4)">
<path style=" stroke:none;fill-rule:evenodd;fill:rgb(0%,32.156863%,60.784314%);fill-opacity:1;" d="M 108.773438 3.429688 C 111.160156 3.429688 113.546875 3.429688 115.933594 3.429688 C 115.933594 15.75 115.933594 28.070312 115.933594 40.390625 C 113.546875 40.390625 111.160156 40.390625 108.773438 40.390625 C 108.773438 28.070312 108.773438 15.75 108.773438 3.429688 Z M 108.773438 3.429688 "/>
</g>
</defs>
<g id="surface1">
<use xlink:href="#surface5" mask="url(#mask0)"/>
<use xlink:href="#surface8" mask="url(#mask1)"/>
<use xlink:href="#surface11" mask="url(#mask2)"/>
<use xlink:href="#surface14" mask="url(#mask3)"/>
</g>
</svg>
