<svg width="32" height="33" viewBox="0 0 32 33" fill="none" xmlns="http://www.w3.org/2000/svg">
<path opacity="0.4" d="M25.6532 7.94H25.1198L20.6132 3.43333C20.2532 3.07333 19.6665 3.07333 19.2932 3.43333C18.9332 3.79333 18.9332 4.38 19.2932 4.75333L22.4798 7.94H9.51984L12.7065 4.75333C13.0665 4.39333 13.0665 3.80666 12.7065 3.43333C12.3465 3.07333 11.7598 3.07333 11.3865 3.43333L6.89317 7.94H6.35984C5.15984 7.94 2.6665 7.94 2.6665 11.3533C2.6665 12.6467 2.93317 13.5 3.49317 14.06C3.81317 14.3933 4.19984 14.5667 4.61317 14.66C4.99984 14.7533 5.41317 14.7667 5.81317 14.7667H26.1865C26.5998 14.7667 26.9865 14.74 27.3598 14.66C28.4798 14.3933 29.3332 13.5933 29.3332 11.3533C29.3332 7.94 26.8398 7.94 25.6532 7.94Z" fill="#009EA9"/>
<path d="M26.1999 14.7667H5.81328C5.41328 14.7667 4.99995 14.7534 4.61328 14.66L6.29328 24.9C6.66661 27.1934 7.66661 29.8334 12.1066 29.8334H19.5866C24.0799 29.8334 24.8799 27.58 25.3599 25.06L27.3733 14.66C26.9999 14.74 26.5999 14.7667 26.1999 14.7667ZM14.1466 23.38C14.1466 23.9 13.7333 24.3134 13.2133 24.3134C12.6933 24.3134 12.2799 23.9 12.2799 23.38V18.98C12.2799 18.46 12.6933 18.0467 13.2133 18.0467C13.7333 18.0467 14.1466 18.46 14.1466 18.98V23.38ZM19.8533 23.38C19.8533 23.9 19.4399 24.3134 18.9199 24.3134C18.3999 24.3134 17.9866 23.9 17.9866 23.38V18.98C17.9866 18.46 18.3999 18.0467 18.9199 18.0467C19.4399 18.0467 19.8533 18.46 19.8533 18.98V23.38Z" fill="#009EA9"/>
</svg>

