<svg width="16" height="17" viewBox="0 0 16 17" fill="none" xmlns="http://www.w3.org/2000/svg">
<path opacity="0.4" d="M4.82665 1.83325H3.55998C2.09998 1.83325 1.33331 2.59992 1.33331 4.05325V5.31992C1.33331 6.77325 2.09998 7.53992 3.55331 7.53992H4.81998C6.27331 7.53992 7.03998 6.77325 7.03998 5.31992V4.05325C7.04665 2.59992 6.27998 1.83325 4.82665 1.83325Z" fill="#686E76"/>
<path opacity="0.4" d="M11.18 2.33325H12.4467C13.0895 2.33325 13.4982 2.50185 13.7481 2.75181C13.9981 3.00177 14.1667 3.41045 14.1667 4.05325V5.31992C14.1667 5.96272 13.9981 6.37141 13.7481 6.62137C13.4982 6.87133 13.0895 7.03992 12.4467 7.03992H11.18C10.5372 7.03992 10.1285 6.87133 9.87858 6.62137C9.62862 6.37141 9.46002 5.96272 9.46002 5.31992V4.05325C9.46002 3.41045 9.62862 3.00177 9.87858 2.75181C10.1285 2.50185 10.5372 2.33325 11.18 2.33325Z" fill="#686E76" stroke="#686E76"/>
<path opacity="0.4" d="M12.4467 9.45337H11.18C9.72669 9.45337 8.96002 10.22 8.96002 11.6734V12.94C8.96002 14.3934 9.72669 15.16 11.18 15.16H12.4467C13.9 15.16 14.6667 14.3934 14.6667 12.94V11.6734C14.6667 10.22 13.9 9.45337 12.4467 9.45337Z" fill="#686E76"/>
<path opacity="0.4" d="M4.82665 9.45337H3.55998C2.09998 9.45337 1.33331 10.22 1.33331 11.6734V12.94C1.33331 14.4 2.09998 15.1667 3.55331 15.1667H4.81998C6.27331 15.1667 7.03998 14.4 7.03998 12.9467V11.68C7.04665 10.22 6.27998 9.45337 4.82665 9.45337Z" fill="#686E76"/>
</svg>
