<svg width="20" height="20" viewBox="0 0 20 20" fill="none" xmlns="http://www.w3.org/2000/svg"><path opacity="0.4" d="M13.4917 1.66663H6.51671C3.48338 1.66663 1.67505 3.47496 1.67505 6.50829V13.4833C1.67505 16.5166 3.48338 18.325 6.51671 18.325H13.4917C16.525 18.325 18.3334 16.5166 18.3334 13.4833V6.50829C18.3334 3.47496 16.525 1.66663 13.4917 1.66663Z" fill="#009EA9"></path><path d="M10.1666 14.4833C9.5833 14.4833 8.99163 14.2583 8.54997 13.8166C8.11663 13.3833 7.87497 12.8083 7.87497 12.2C7.87497 11.5917 8.11663 11.0083 8.54997 10.5833L9.72495 9.40832C9.96661 9.16665 10.3666 9.16665 10.6083 9.40832C10.8499 9.64999 10.8499 10.05 10.6083 10.2917L9.4333 11.4667C9.2333 11.6667 9.12497 11.925 9.12497 12.2C9.12497 12.475 9.2333 12.7416 9.4333 12.9333C9.84163 13.3416 10.5 13.3416 10.9083 12.9333L12.7583 11.0833C13.8166 10.025 13.8166 8.30832 12.7583 7.24999C11.7 6.19166 9.98331 6.19166 8.92498 7.24999L6.90827 9.26664C6.48327 9.69164 6.24996 10.25 6.24996 10.8417C6.24996 11.4333 6.48327 12 6.90827 12.4166C7.14994 12.6583 7.14994 13.0583 6.90827 13.3C6.66661 13.5416 6.26661 13.5416 6.02494 13.3C5.36661 12.6416 5.0083 11.7666 5.0083 10.8333C5.0083 9.89998 5.36661 9.02499 6.02494 8.36665L8.04165 6.34998C9.58331 4.80831 12.1 4.80831 13.6416 6.34998C15.1833 7.89164 15.1833 10.4083 13.6416 11.95L11.7916 13.8C11.3416 14.2583 10.7583 14.4833 10.1666 14.4833Z" fill="#009EA9"></path></svg>