<svg width="20" height="20" viewBox="0 0 20 20" fill="none" xmlns="http://www.w3.org/2000/svg"><path opacity="0.4" d="M18.3333 7.5V13.7167C18.3333 15.625 16.7833 17.1667 14.875 17.1667H5.12496C3.21663 17.1667 1.66663 15.625 1.66663 13.7167V7.5H18.3333Z" fill="#686E76"></path><path d="M18.3333 6.28337V7.50004H1.66663V6.28337C1.66663 4.37504 3.21663 2.83337 5.12496 2.83337H14.875C16.7833 2.83337 18.3333 4.37504 18.3333 6.28337Z" fill="#686E76"></path><path d="M6.66667 14.375H5C4.65833 14.375 4.375 14.0917 4.375 13.75C4.375 13.4083 4.65833 13.125 5 13.125H6.66667C7.00833 13.125 7.29167 13.4083 7.29167 13.75C7.29167 14.0917 7.00833 14.375 6.66667 14.375Z" fill="#686E76"></path><path d="M12.0833 14.375H8.75C8.40833 14.375 8.125 14.0917 8.125 13.75C8.125 13.4083 8.40833 13.125 8.75 13.125H12.0833C12.425 13.125 12.7083 13.4083 12.7083 13.75C12.7083 14.0917 12.425 14.375 12.0833 14.375Z" fill="#686E76"></path></svg>