<svg width="12" height="14" viewBox="0 0 12 14" fill="none" xmlns="http://www.w3.org/2000/svg">
<path d="M10.5 7.47009C10.09 7.47009 9.75 7.13009 9.75 6.72009V4.95013C9.75 4.48013 9.36999 4.1001 8.89999 4.1001H1.5C1.09 4.1001 0.75 3.7601 0.75 3.3501C0.75 2.9401 1.09 2.6001 1.5 2.6001H8.89999C10.2 2.6001 11.25 3.66013 11.25 4.95013V6.72009C11.25 7.13009 10.91 7.47009 10.5 7.47009Z" fill="#009EA9"/>
<path d="M3.18994 5.77988C2.99994 5.77988 2.80994 5.70985 2.65994 5.55985L0.969941 3.86984C0.679941 3.57984 0.679941 3.09985 0.969941 2.80985L2.65994 1.11984C2.94994 0.829844 3.42994 0.829844 3.71994 1.11984C4.00994 1.40984 4.00994 1.88984 3.71994 2.17984L2.55994 3.33988L3.71994 4.49985C4.00994 4.78985 4.00994 5.26985 3.71994 5.55985C3.56994 5.70985 3.37994 5.77988 3.18994 5.77988Z" fill="#009EA9"/>
<path d="M10.5 11.41H3.10001C1.80001 11.41 0.75 10.3501 0.75 9.06006V7.29004C0.75 6.88004 1.09 6.54004 1.5 6.54004C1.91 6.54004 2.25 6.88004 2.25 7.29004V9.06006C2.25 9.53006 2.63001 9.91003 3.10001 9.91003H10.5C10.91 9.91003 11.25 10.25 11.25 10.66C11.25 11.07 10.91 11.41 10.5 11.41Z" fill="#009EA9"/>
<path d="M8.81 13.0899C8.62 13.0899 8.43 13.0199 8.28 12.8699C7.99 12.5799 7.99 12.0999 8.28 11.8099L9.44 10.6499L8.28 9.4899C7.99 9.1999 7.99 8.7199 8.28 8.4299C8.57 8.1399 9.05 8.1399 9.34 8.4299L11.03 10.1199C11.32 10.4099 11.32 10.8899 11.03 11.1799L9.34 12.8699C9.2 13.0199 9 13.0899 8.81 13.0899Z" fill="#009EA9"/>
</svg>