<svg width="20" height="20" viewBox="0 0 20 20" fill="none" xmlns="http://www.w3.org/2000/svg"><path opacity="0.4" d="M14.9833 8.99167V12.325C14.9833 12.5417 14.975 12.75 14.95 12.95C14.7583 15.2 13.4333 16.3167 10.9916 16.3167H10.6583C10.45 16.3167 10.25 16.4167 10.125 16.5833L9.12497 17.9167C8.6833 18.5083 7.96662 18.5083 7.52496 17.9167L6.52495 16.5833C6.41661 16.4417 6.17496 16.3167 5.99163 16.3167H5.6583C2.99997 16.3167 1.66663 15.6583 1.66663 12.325V8.99167C1.66663 6.55001 2.79163 5.22501 5.0333 5.03334C5.2333 5.00834 5.44163 5 5.6583 5H10.9916C13.65 5 14.9833 6.33334 14.9833 8.99167Z" fill="#686E76"></path><path d="M8.32503 11.6667C7.85837 11.6667 7.4917 11.2917 7.4917 10.8333C7.4917 10.375 7.8667 10 8.32503 10C8.78337 10 9.15837 10.375 9.15837 10.8333C9.15837 11.2917 8.7917 11.6667 8.32503 11.6667Z" fill="#686E76"></path><path d="M11.2417 11.6667C10.775 11.6667 10.4083 11.2917 10.4083 10.8333C10.4083 10.375 10.7833 10 11.2417 10C11.7 10 12.075 10.375 12.075 10.8333C12.075 11.2917 11.7 11.6667 11.2417 11.6667Z" fill="#686E76"></path><path d="M5.41671 11.6667C4.95004 11.6667 4.58337 11.2917 4.58337 10.8333C4.58337 10.375 4.95837 10 5.41671 10C5.87504 10 6.25004 10.375 6.25004 10.8333C6.25004 11.2917 5.87504 11.6667 5.41671 11.6667Z" fill="#686E76"></path><path d="M18.3167 5.6583V8.99163C18.3167 11.4416 17.1917 12.7583 14.95 12.95C14.975 12.75 14.9833 12.5416 14.9833 12.325V8.99163C14.9833 6.3333 13.65 4.99996 10.9917 4.99996H5.65833C5.44166 4.99996 5.23333 5.0083 5.03333 5.0333C5.22499 2.79163 6.54999 1.66663 8.99166 1.66663H14.325C16.9833 1.66663 18.3167 2.99997 18.3167 5.6583Z" fill="#686E76"></path></svg>