<svg width="18" height="18" viewBox="0 0 18 18" fill="none" xmlns="http://www.w3.org/2000/svg"><path opacity="0.4" d="M15.5666 16.4499C14.775 17.0333 13.7333 17.3333 12.4916 17.3333H5.50829C5.30829 17.3333 5.10829 17.3249 4.91663 17.2999L10.6666 11.5499L15.5666 16.4499Z" fill="#686E76"></path><path opacity="0.4" d="M17.3333 5.50829V12.4916C17.3333 13.7333 17.0333 14.775 16.4499 15.5666L11.5499 10.6666L17.2999 4.91663C17.3249 5.10829 17.3333 5.30829 17.3333 5.50829Z" fill="#686E76"></path><path opacity="0.4" d="M11.55 10.6666L16.45 15.5666C16.2083 15.9166 15.9166 16.2083 15.5666 16.45L10.6666 11.55L4.91663 17.3C4.3833 17.2666 3.89996 17.1583 3.4583 16.9916C1.67496 16.3416 0.666626 14.7583 0.666626 12.4916V5.50829C0.666626 2.47496 2.47496 0.666626 5.50829 0.666626H12.4916C14.7583 0.666626 16.3416 1.67496 16.9916 3.45829C17.1583 3.89996 17.2666 4.38329 17.3 4.91663L11.55 10.6666Z" fill="#686E76"></path><path d="M11.5499 10.6666L16.4499 15.5666C16.2083 15.9166 15.9166 16.2083 15.5666 16.4499L10.6666 11.5499L4.91659 17.2999C4.38325 17.2666 3.89992 17.1582 3.45825 16.9916L3.78324 16.6666L16.9916 3.45825C17.1582 3.89992 17.2666 4.38325 17.2999 4.91659L11.5499 10.6666Z" fill="#686E76"></path><path d="M9.19996 5.60828C8.88329 4.23328 7.66663 3.61661 6.59996 3.60828C5.5333 3.60828 4.31663 4.22494 3.99997 5.59994C3.64997 7.12494 4.58329 8.39994 5.42496 9.19994C5.75829 9.51661 6.17496 9.66661 6.59996 9.66661C7.02496 9.66661 7.44163 9.50828 7.77496 9.19994C8.61663 8.39994 9.54996 7.12494 9.19996 5.60828ZM6.62496 6.90828C6.16663 6.90828 5.79163 6.53328 5.79163 6.07494C5.79163 5.61661 6.15829 5.24161 6.62496 5.24161H6.6333C7.09164 5.24161 7.46664 5.61661 7.46664 6.07494C7.46664 6.53328 7.08329 6.90828 6.62496 6.90828Z" fill="#686E76"></path></svg>