<svg width="20" height="20" viewBox="0 0 20 20" fill="none" xmlns="http://www.w3.org/2000/svg"><path opacity="0.4" d="M18.3334 6.50817V13.4915C18.3334 15.8332 17.2584 17.4415 15.3668 18.0498C14.8168 18.2415 14.1834 18.3332 13.4918 18.3332H6.50841C5.81675 18.3332 5.18341 18.2415 4.63341 18.0498C2.74175 17.4415 1.66675 15.8332 1.66675 13.4915V6.50817C1.66675 3.47484 3.47508 1.6665 6.50841 1.6665H13.4918C16.5251 1.6665 18.3334 3.47484 18.3334 6.50817Z" fill="#686E76"></path><path d="M15.3666 18.0499C14.8166 18.2416 14.1833 18.3333 13.4916 18.3333H6.5083C5.81663 18.3333 5.1833 18.2416 4.6333 18.0499C4.92497 15.8499 7.22497 14.1416 9.99997 14.1416C12.775 14.1416 15.075 15.8499 15.3666 18.0499Z" fill="#686E76"></path><path d="M12.9833 9.64985C12.9833 11.2999 11.6499 12.6415 9.99994 12.6415C8.34994 12.6415 7.0166 11.2999 7.0166 9.64985C7.0166 7.99985 8.34994 6.6665 9.99994 6.6665C11.6499 6.6665 12.9833 7.99985 12.9833 9.64985Z" fill="#686E76"></path></svg>