<svg xmlns:xlink="http://www.w3.org/1999/xlink"  width="16" height="16" viewBox="0 0 16 16" fill="none" xmlns="http://www.w3.org/2000/svg">
<mask id="path-1-inside-1_111_5063" fill="white">
<path d="M11.3333 14.1666H4.66666C2.23333 14.1666 0.833328 12.7666 0.833328 10.3333V5.66659C0.833328 3.23325 2.23333 1.83325 4.66666 1.83325H11.3333C13.7667 1.83325 15.1667 3.23325 15.1667 5.66659V10.3333C15.1667 12.7666 13.7667 14.1666 11.3333 14.1666ZM4.66666 2.83325C2.75999 2.83325 1.83333 3.75992 1.83333 5.66659V10.3333C1.83333 12.2399 2.75999 13.1666 4.66666 13.1666H11.3333C13.24 13.1666 14.1667 12.2399 14.1667 10.3333V5.66659C14.1667 3.75992 13.24 2.83325 11.3333 2.83325H4.66666Z"/>
</mask>
<path d="M11.3333 13.1666H4.66666V15.1666H11.3333V13.1666ZM4.66666 13.1666C3.63981 13.1666 2.96391 12.8746 2.5446 12.4553C2.12529 12.036 1.83333 11.3601 1.83333 10.3333H-0.166672C-0.166672 11.7397 0.241365 12.9805 1.13039 13.8695C2.01941 14.7585 3.26018 15.1666 4.66666 15.1666V13.1666ZM1.83333 10.3333V5.66659H-0.166672V10.3333H1.83333ZM1.83333 5.66659C1.83333 4.63974 2.12529 3.96384 2.5446 3.54453C2.96391 3.12522 3.63981 2.83325 4.66666 2.83325V0.833252C3.26018 0.833252 2.01941 1.24129 1.13039 2.13031C0.241365 3.01934 -0.166672 4.2601 -0.166672 5.66659H1.83333ZM4.66666 2.83325H11.3333V0.833252H4.66666V2.83325ZM11.3333 2.83325C12.3602 2.83325 13.0361 3.12522 13.4554 3.54453C13.8747 3.96384 14.1667 4.63974 14.1667 5.66659H16.1667C16.1667 4.2601 15.7586 3.01934 14.8696 2.13031C13.9806 1.24129 12.7398 0.833252 11.3333 0.833252V2.83325ZM14.1667 5.66659V10.3333H16.1667V5.66659H14.1667ZM14.1667 10.3333C14.1667 11.3601 13.8747 12.036 13.4554 12.4553C13.0361 12.8746 12.3602 13.1666 11.3333 13.1666V15.1666C12.7398 15.1666 13.9806 14.7585 14.8696 13.8695C15.7586 12.9805 16.1667 11.7397 16.1667 10.3333H14.1667ZM4.66666 1.83325C3.56635 1.83325 2.55511 2.10059 1.82789 2.82781C1.10066 3.55504 0.833328 4.56627 0.833328 5.66659H2.83333C2.83333 4.86023 3.02933 4.4548 3.2421 4.24203C3.45488 4.02925 3.86031 3.83325 4.66666 3.83325V1.83325ZM0.833328 5.66659V10.3333H2.83333V5.66659H0.833328ZM0.833328 10.3333C0.833328 11.4336 1.10066 12.4448 1.82789 13.172C2.55511 13.8993 3.56635 14.1666 4.66666 14.1666V12.1666C3.86031 12.1666 3.45488 11.9706 3.2421 11.7578C3.02933 11.545 2.83333 11.1396 2.83333 10.3333H0.833328ZM4.66666 14.1666H11.3333V12.1666H4.66666V14.1666ZM11.3333 14.1666C12.4336 14.1666 13.4449 13.8993 14.1721 13.172C14.8993 12.4448 15.1667 11.4336 15.1667 10.3333H13.1667C13.1667 11.1396 12.9707 11.545 12.7579 11.7578C12.5451 11.9706 12.1397 12.1666 11.3333 12.1666V14.1666ZM15.1667 10.3333V5.66659H13.1667V10.3333H15.1667ZM15.1667 5.66659C15.1667 4.56627 14.8993 3.55504 14.1721 2.82781C13.4449 2.10059 12.4336 1.83325 11.3333 1.83325V3.83325C12.1397 3.83325 12.5451 4.02925 12.7579 4.24203C12.9707 4.4548 13.1667 4.86023 13.1667 5.66659H15.1667ZM11.3333 1.83325H4.66666V3.83325H11.3333V1.83325Z" fill="#009EA9" mask="url(#path-1-inside-1_111_5063)"/>
<path d="M8 10C6.89614 10 6 9.10386 6 8M8 10C9.10386 10 10 9.10386 10 8M8 10C9.10281 10 10 9.10281 10 8M8 10C6.89719 10 6 9.10281 6 8M6 8C6 6.89614 6.89614 6 8 6M6 8C6 6.89719 6.89719 6 8 6M10 8C10 6.89614 9.10386 6 8 6M10 8C10 6.89719 9.10281 6 8 6" stroke="#009EA9"/>
<path d="M3.66667 10.1666C3.39334 10.1666 3.16667 9.93992 3.16667 9.66659V6.33325C3.16667 6.05992 3.39334 5.83325 3.66667 5.83325C3.94 5.83325 4.16667 6.05992 4.16667 6.33325V9.66659C4.16667 9.93992 3.94 10.1666 3.66667 10.1666Z" fill="#009EA9"/>
<path d="M12.3333 10.1666C12.06 10.1666 11.8333 9.93992 11.8333 9.66659V6.33325C11.8333 6.05992 12.06 5.83325 12.3333 5.83325C12.6067 5.83325 12.8333 6.05992 12.8333 6.33325V9.66659C12.8333 9.93992 12.6067 10.1666 12.3333 10.1666Z" fill="#009EA9"/>
</svg>
