<svg width="20" height="20" viewBox="0 0 20 20" fill="none" xmlns="http://www.w3.org/2000/svg"><path opacity="0.4" d="M13.4917 1.6665H6.51669C3.47503 1.6665 1.66669 3.47484 1.66669 6.50817V13.4832C1.66669 16.5165 3.47502 18.3248 6.50835 18.3248H13.4833C16.5167 18.3248 18.325 16.5165 18.325 13.4832V6.50817C18.3334 3.47484 16.525 1.6665 13.4917 1.6665Z" fill="#686E76"></path><path d="M10 5.42491C9.88334 5.42491 9.75835 5.44158 9.64168 5.44991L9.87501 5.18325C10.1 4.92491 10.075 4.52491 9.81667 4.29991C9.55834 4.07491 9.15834 4.09991 8.93334 4.35825L7.54168 5.94991C7.53334 5.95825 7.53334 5.96658 7.52501 5.97491C7.51667 5.98325 7.50834 5.98325 7.50834 5.99158C7.49167 6.01658 7.48335 6.04991 7.46668 6.08325C7.45001 6.12491 7.425 6.15825 7.41667 6.19991C7.40834 6.24158 7.40834 6.27491 7.40001 6.31658C7.40001 6.35825 7.39167 6.39158 7.39167 6.43325C7.39167 6.47491 7.40834 6.50825 7.42501 6.54991C7.43334 6.59158 7.45001 6.62491 7.46668 6.65825C7.48335 6.69158 7.51668 6.72491 7.54168 6.75825C7.56668 6.78325 7.575 6.81658 7.6 6.83325C7.60834 6.84158 7.61667 6.84158 7.625 6.84991C7.63334 6.85825 7.63334 6.86658 7.64167 6.86658L9.25834 8.04991C9.36667 8.13325 9.50001 8.16658 9.62501 8.16658C9.81668 8.16658 10.0083 8.07491 10.1333 7.90825C10.3333 7.63325 10.275 7.24158 10 7.03325L9.53334 6.69158C9.68334 6.67491 9.84167 6.65825 10 6.65825C11.95 6.65825 13.5417 8.24991 13.5417 10.1999C13.5417 12.1499 11.95 13.7416 10 13.7416C8.05001 13.7416 6.45834 12.1499 6.45834 10.1999C6.45834 9.49158 6.66668 8.81658 7.05001 8.23325C7.24168 7.94991 7.16667 7.55825 6.87501 7.36658C6.59167 7.17491 6.20001 7.24991 6.00835 7.54158C5.48335 8.33325 5.20001 9.24991 5.20001 10.1999C5.20001 12.8416 7.35001 14.9916 9.99168 14.9916C12.6333 14.9916 14.7833 12.8416 14.7833 10.1999C14.7833 7.55825 12.6417 5.42491 10 5.42491Z" fill="#686E76"></path></svg>