<svg width="16" height="16" viewBox="0 0 16 16" fill="none" xmlns="http://www.w3.org/2000/svg">
<path d="M9.80017 15.1666H6.20017C2.90684 15.1666 1.50684 13.76 1.50684 10.4733V7.47998C1.50684 7.20665 1.7335 6.97998 2.00684 6.97998C2.28017 6.97998 2.50684 7.20665 2.50684 7.47998V10.4733C2.50684 13.2 3.4735 14.1666 6.20017 14.1666H9.7935C12.5202 14.1666 13.4868 13.2 13.4868 10.4733V7.47998C13.4868 7.20665 13.7135 6.97998 13.9868 6.97998C14.2602 6.97998 14.4868 7.20665 14.4868 7.47998V10.4733C14.4935 13.76 13.0868 15.1666 9.80017 15.1666Z" fill="#8C9197"/>
<path d="M8.00033 8.49998C7.26699 8.49998 6.60033 8.21331 6.12699 7.68665C5.65366 7.15998 5.43366 6.47331 5.50699 5.73998L5.95366 1.28665C5.98033 1.03331 6.19366 0.833313 6.45366 0.833313H9.56699C9.82699 0.833313 10.0403 1.02665 10.067 1.28665L10.5137 5.73998C10.587 6.47331 10.367 7.15998 9.89366 7.68665C9.40033 8.21331 8.73366 8.49998 8.00033 8.49998ZM6.90033 1.83331L6.50033 5.83998C6.45366 6.28665 6.58699 6.70665 6.86699 7.01331C7.43366 7.63998 8.56699 7.63998 9.13366 7.01331C9.41366 6.69998 9.54699 6.27998 9.50033 5.83998L9.10033 1.83331H6.90033Z" fill="#8C9197"/>
<path d="M12.207 8.49998C10.8537 8.49998 9.64699 7.40665 9.50699 6.05998L9.04033 1.38665C9.02699 1.24665 9.07366 1.10665 9.16699 0.99998C9.26033 0.893313 9.39366 0.833313 9.54033 0.833313H11.5737C13.5337 0.833313 14.447 1.65331 14.7203 3.66665L14.907 5.51998C14.987 6.30665 14.747 7.05331 14.2337 7.61998C13.7203 8.18665 13.0003 8.49998 12.207 8.49998ZM10.0937 1.83331L10.507 5.95998C10.5937 6.79331 11.367 7.49998 12.207 7.49998C12.7137 7.49998 13.167 7.30665 13.4937 6.95331C13.8137 6.59998 13.9603 6.12665 13.9137 5.61998L13.727 3.78665C13.5203 2.27998 13.0337 1.83331 11.5737 1.83331H10.0937Z" fill="#8C9197"/>
<path d="M3.76001 8.49998C2.96668 8.49998 2.24668 8.18665 1.73335 7.61998C1.22001 7.05331 0.980014 6.30665 1.06001 5.51998L1.24001 3.68665C1.52001 1.65331 2.43335 0.833313 4.39335 0.833313H6.42668C6.56668 0.833313 6.70001 0.893313 6.80001 0.99998C6.90001 1.10665 6.94001 1.24665 6.92668 1.38665L6.46001 6.05998C6.32001 7.40665 5.11335 8.49998 3.76001 8.49998ZM4.39335 1.83331C2.93335 1.83331 2.44668 2.27331 2.23335 3.79998L2.05335 5.61998C2.00001 6.12665 2.15335 6.59998 2.47335 6.95331C2.79335 7.30665 3.24668 7.49998 3.76001 7.49998C4.60001 7.49998 5.38001 6.79331 5.46001 5.95998L5.87335 1.83331H4.39335Z" fill="#8C9197"/>
<path d="M9.66634 15.1666H6.33301C6.05967 15.1666 5.83301 14.94 5.83301 14.6666V13C5.83301 11.6 6.59967 10.8333 7.99967 10.8333C9.39967 10.8333 10.1663 11.6 10.1663 13V14.6666C10.1663 14.94 9.93967 15.1666 9.66634 15.1666ZM6.83301 14.1666H9.16634V13C9.16634 12.16 8.83967 11.8333 7.99967 11.8333C7.15967 11.8333 6.83301 12.16 6.83301 13V14.1666Z" fill="#8C9197"/>
</svg>
