<svg width="16" height="16" viewBox="0 0 16 16" fill="none" xmlns="http://www.w3.org/2000/svg">
<g id="vuesax/outline/truck-fast">
<g id="truck-fast">
<path id="Vector" d="M8.66587 9.83337H7.9992C7.72587 9.83337 7.4992 9.60671 7.4992 9.33337C7.4992 9.06004 7.72587 8.83337 7.9992 8.83337H8.66587C9.12587 8.83337 9.4992 8.46004 9.4992 8.00004V1.83337H3.9992C3.21253 1.83337 2.49252 2.26003 2.10585 2.9467C1.97252 3.1867 1.66588 3.27339 1.42588 3.14006C1.18588 3.00672 1.09918 2.70004 1.23252 2.46004C1.79252 1.46004 2.85253 0.833374 3.9992 0.833374H9.9992C10.2725 0.833374 10.4992 1.06004 10.4992 1.33337V8.00004C10.4992 9.01337 9.6792 9.83337 8.66587 9.83337Z" fill="#8C9197"/>
<path id="Vector_2" d="M12.6673 13.8334H12.0007C11.7273 13.8334 11.5007 13.6067 11.5007 13.3334C11.5007 12.8734 11.1273 12.5 10.6673 12.5C10.2073 12.5 9.83398 12.8734 9.83398 13.3334C9.83398 13.6067 9.60732 13.8334 9.33398 13.8334H6.66732C6.39398 13.8334 6.16732 13.6067 6.16732 13.3334C6.16732 12.8734 5.79398 12.5 5.33398 12.5C4.87398 12.5 4.50065 12.8734 4.50065 13.3334C4.50065 13.6067 4.27398 13.8334 4.00065 13.8334H3.33398C1.95398 13.8334 0.833984 12.7134 0.833984 11.3334C0.833984 11.06 1.06065 10.8334 1.33398 10.8334C1.60732 10.8334 1.83398 11.06 1.83398 11.3334C1.83398 12.16 2.50732 12.8334 3.33398 12.8334H3.5673C3.7873 12.0667 4.49398 11.5 5.33398 11.5C6.17398 11.5 6.88067 12.0667 7.10067 12.8334H8.90731C9.12731 12.0667 9.83399 11.5 10.674 11.5C11.514 11.5 12.2206 12.0667 12.4406 12.8334H12.6673C13.494 12.8334 14.1673 12.16 14.1673 11.3334V9.83337H12.6673C12.0273 9.83337 11.5007 9.30671 11.5007 8.66671V6.66671C11.5007 6.02671 12.0207 5.50004 12.6673 5.50004L11.954 4.25338C11.8073 3.99338 11.5273 3.83337 11.2273 3.83337H10.5007V8.00004C10.5007 9.01337 9.68065 9.83337 8.66732 9.83337H8.00065C7.72732 9.83337 7.50065 9.60671 7.50065 9.33337C7.50065 9.06004 7.72732 8.83337 8.00065 8.83337H8.66732C9.12732 8.83337 9.50065 8.46004 9.50065 8.00004V3.33337C9.50065 3.06004 9.72732 2.83337 10.0007 2.83337H11.2273C11.8873 2.83337 12.494 3.18672 12.8206 3.76005L13.9607 5.75338C14.0473 5.90671 14.0473 6.10004 13.9607 6.25338C13.874 6.40671 13.7073 6.50004 13.5273 6.50004H12.6673C12.574 6.50004 12.5007 6.57337 12.5007 6.66671V8.66671C12.5007 8.76004 12.574 8.83337 12.6673 8.83337H14.6673C14.9407 8.83337 15.1673 9.06004 15.1673 9.33337V11.3334C15.1673 12.7134 14.0473 13.8334 12.6673 13.8334Z" fill="#8C9197"/>
<path id="Vector_3" d="M5.33333 15.1667C4.32 15.1667 3.5 14.3467 3.5 13.3333C3.5 12.32 4.32 11.5 5.33333 11.5C6.34667 11.5 7.16667 12.32 7.16667 13.3333C7.16667 14.3467 6.34667 15.1667 5.33333 15.1667ZM5.33333 12.5C4.87333 12.5 4.5 12.8733 4.5 13.3333C4.5 13.7933 4.87333 14.1667 5.33333 14.1667C5.79333 14.1667 6.16667 13.7933 6.16667 13.3333C6.16667 12.8733 5.79333 12.5 5.33333 12.5Z" fill="#8C9197"/>
<path id="Vector_4" d="M10.6673 15.1667C9.65398 15.1667 8.83398 14.3467 8.83398 13.3333C8.83398 12.32 9.65398 11.5 10.6673 11.5C11.6807 11.5 12.5007 12.32 12.5007 13.3333C12.5007 14.3467 11.6807 15.1667 10.6673 15.1667ZM10.6673 12.5C10.2073 12.5 9.83398 12.8733 9.83398 13.3333C9.83398 13.7933 10.2073 14.1667 10.6673 14.1667C11.1273 14.1667 11.5007 13.7933 11.5007 13.3333C11.5007 12.8733 11.1273 12.5 10.6673 12.5Z" fill="#8C9197"/>
<path id="Vector_5" d="M14.6667 9.83333H12.6667C12.0267 9.83333 11.5 9.30667 11.5 8.66667V6.66667C11.5 6.02667 12.0267 5.5 12.6667 5.5H13.5267C13.7067 5.5 13.8733 5.59334 13.96 5.75334L15.1 7.75334C15.14 7.82667 15.1667 7.91333 15.1667 8V9.33333C15.1667 9.60667 14.94 9.83333 14.6667 9.83333ZM12.6667 6.5C12.5733 6.5 12.5 6.57333 12.5 6.66667V8.66667C12.5 8.76 12.5733 8.83333 12.6667 8.83333H14.1667V8.13334L13.2333 6.5H12.6667Z" fill="#8C9197"/>
<path id="Vector_6" d="M5.33398 5.83337H1.33398C1.06065 5.83337 0.833984 5.60671 0.833984 5.33337C0.833984 5.06004 1.06065 4.83337 1.33398 4.83337H5.33398C5.60732 4.83337 5.83398 5.06004 5.83398 5.33337C5.83398 5.60671 5.60732 5.83337 5.33398 5.83337Z" fill="#8C9197"/>
<path id="Vector_7" d="M4.00065 7.83337H1.33398C1.06065 7.83337 0.833984 7.60671 0.833984 7.33337C0.833984 7.06004 1.06065 6.83337 1.33398 6.83337H4.00065C4.27398 6.83337 4.50065 7.06004 4.50065 7.33337C4.50065 7.60671 4.27398 7.83337 4.00065 7.83337Z" fill="#8C9197"/>
<path id="Vector_8" d="M2.66732 9.83337H1.33398C1.06065 9.83337 0.833984 9.60671 0.833984 9.33337C0.833984 9.06004 1.06065 8.83337 1.33398 8.83337H2.66732C2.94065 8.83337 3.16732 9.06004 3.16732 9.33337C3.16732 9.60671 2.94065 9.83337 2.66732 9.83337Z" fill="#8C9197"/>
</g>
</g>
</svg>
