<svg xmlns:xlink="http://www.w3.org/1999/xlink"  width="36" height="36" viewBox="0 0 36 36" fill="none" xmlns="http://www.w3.org/2000/svg">
<g id="vuesax/bulk/wallet">
<g id="wallet">
<path id="Vector" opacity="0.4" d="M33 18V25.5C33 30 30 33 25.5 33H10.5C6 33 3 30 3 25.5V18C3 13.92 5.46 11.07 9.285 10.59C9.675 10.53 10.08 10.5 10.5 10.5H25.5C25.89 10.5 26.265 10.515 26.625 10.575C30.495 11.025 33 13.89 33 18Z" fill="#0092AC"/>
<path id="Vector_2" d="M26.6249 10.575C26.2649 10.515 25.8899 10.5 25.4999 10.5H10.4999C10.0799 10.5 9.67491 10.53 9.28491 10.59C9.49491 10.17 9.79491 9.78001 10.1549 9.42001L15.0299 4.53C17.0849 2.49 20.4149 2.49 22.4699 4.53L25.0949 7.18503C26.0549 8.13003 26.5649 9.33 26.6249 10.575Z" fill="#0092AC"/>
<path id="Vector_3" d="M33 18.75H28.5C26.85 18.75 25.5 20.1 25.5 21.75C25.5 23.4 26.85 24.75 28.5 24.75H33" fill="#0092AC"/>
</g>
</g>
</svg>
