<svg xmlns="http://www.w3.org/2000/svg" width="900" height="267" viewBox="0 0 900 267" fill="none">
<path d="M72.8186 66.7323C72.5711 66.1219 71.9775 65.7253 71.3221 65.7253H52.5966C52.1662 65.7253 51.7556 65.894 51.4518 66.1978L22.2397 95.4605H16.4283V67.3399C16.4283 66.4482 15.7026 65.7253 14.8109 65.7253H1.61833C0.723829 65.7253 0.000915527 66.4482 0.000915527 67.3399V140.11C0.000915527 141.004 0.723829 141.727 1.61833 141.727H14.8109C15.7026 141.727 16.4283 141.004 16.4283 140.11V111.989H22.2397L51.4518 141.252C51.7556 141.556 52.1662 141.727 52.5966 141.727H71.3221C71.9775 141.727 72.5711 141.328 72.8186 140.717C73.0661 140.11 72.9199 139.409 72.4473 138.951L36.2396 103.725L72.4473 68.4988C72.9199 68.0403 73.0661 67.3427 72.8186 66.7323Z" fill="#CE3023"/>
<path d="M138.156 107.437H95.0062V103.724C95.0062 100.261 95.49 97.2937 96.4408 94.9112C97.3944 92.5202 98.6124 90.509 100.061 88.9366C101.515 87.3586 103.124 86.1068 104.843 85.2179C106.626 84.2925 108.342 83.6005 109.934 83.1589C111.54 82.7116 112.964 82.4303 114.165 82.3206C115.723 82.18 116.339 82.1519 116.581 82.1519H138.156V107.437ZM152.181 68.1267C151.427 67.37 150.533 66.7737 149.529 66.3546C148.522 65.9355 147.442 65.7245 146.319 65.7245H116.581C111.155 65.7245 106.067 66.6696 101.462 68.5318C96.8515 70.3967 92.7981 73.0409 89.4142 76.391C86.0246 79.744 83.3411 83.8002 81.4396 88.4472C79.5437 93.0884 78.5817 98.2276 78.5817 103.724V140.109C78.5817 141.003 79.3046 141.726 80.1963 141.726H93.3916C94.2833 141.726 95.0062 141.003 95.0062 140.109V123.864H138.156V140.109C138.156 141.003 138.879 141.726 139.774 141.726H152.966C153.861 141.726 154.584 141.003 154.584 140.109V73.9888C154.584 72.8665 154.37 71.7863 153.951 70.7765C153.534 69.7751 152.938 68.8834 152.181 68.1267Z" fill="#CE3023"/>
<path d="M222.555 117.61C223.064 117.532 223.579 117.442 224.096 117.337C226.054 116.941 228.017 116.297 229.933 115.419C231.846 114.544 233.705 113.411 235.452 112.055C237.23 110.677 238.819 108.994 240.175 107.062C241.531 105.129 242.619 102.871 243.412 100.353C244.203 97.8384 244.602 94.9608 244.602 91.7991V83.3773C244.602 82.6065 244.535 81.8077 244.42 80.9919C244.009 75.819 241.396 70.7304 237.694 67.3409C241.238 68.8036 246.434 74.1453 247.367 81.4898C248.068 77.6924 247.216 74.0834 246.074 70.6264C240.085 52.4662 260.391 41.9263 265.747 46.3285C262.867 39.5409 253.227 41.0205 248.009 45.3243C249.477 43.5972 251.294 42.2498 253.303 41.3328C249.252 32.9672 233.415 46.7673 222.513 45.0177C224.687 47.5184 229.193 49.1301 233.01 50.2356C210.755 47.6309 176.89 25.5524 190.181 -7.17174e-05C173.475 13.0771 175.239 29.2992 186.057 42.953C178.33 37.5185 172.46 30.4074 170.595 20.4441C162.961 43.4846 179.931 59.8248 213.118 65.2087C196.299 66.2551 176.176 60.1933 167.759 47.3017C168.454 56.2355 172.204 61.9514 177.481 65.7235H176.915C175.756 65.7235 174.662 65.9372 173.655 66.3564C172.64 66.7783 171.751 67.3803 171.011 68.1426C170.28 68.8936 169.697 69.7825 169.284 70.7783C168.862 71.7825 168.651 72.8626 168.651 73.9878V140.111C168.651 141.002 169.374 141.725 170.266 141.725H183.461C184.353 141.725 185.078 141.002 185.078 140.111V82.1508H227.002C227.221 82.1508 227.463 82.1649 227.716 82.193C227.761 82.1958 227.829 82.2099 227.922 82.269C227.936 82.2802 227.989 82.3421 228.054 82.4715C228.065 82.4996 228.175 82.75 228.175 83.4785V91.7991C228.175 93.3068 227.942 94.6486 227.483 95.785C227.03 96.8989 226.383 97.8609 225.559 98.6457C224.712 99.4474 223.686 100.1 222.51 100.578C221.314 101.065 219.97 101.374 218.51 101.501H188.738C187.846 101.501 187.123 102.224 187.123 103.115V116.311C187.123 117.202 187.846 117.925 188.738 117.925H197.627L224.676 141.332C224.968 141.588 225.345 141.725 225.733 141.725H246.133C246.808 141.725 247.412 141.306 247.649 140.673C247.882 140.04 247.702 139.329 247.19 138.887L222.555 117.61Z" fill="#CE3023"/>
<path d="M323.414 65.7242H252.014C251.122 65.7242 250.399 66.4472 250.399 67.3417V80.5342C250.399 81.4287 251.122 82.1516 252.014 82.1516H279.527V140.112C279.527 141.003 280.25 141.726 281.141 141.726H294.337C295.229 141.726 295.954 141.003 295.954 140.112V82.1516H323.414C324.306 82.1516 325.031 81.4287 325.031 80.5342V67.3417C325.031 66.4472 324.306 65.7242 323.414 65.7242Z" fill="#CE3023"/>
<path d="M406.38 65.7242H393.185C392.293 65.7242 391.57 66.4472 391.57 67.3417V125.302H369.995C369.793 125.302 369.21 125.279 367.579 125.13C366.378 125.02 364.955 124.739 363.348 124.295C361.753 123.853 360.04 123.158 358.254 122.233C356.535 121.344 354.927 120.092 353.472 118.514C352.026 116.942 350.806 114.942 349.852 112.562C348.901 110.199 348.42 107.226 348.42 103.727V67.3417C348.42 66.4472 347.697 65.7242 346.806 65.7242H333.61C332.719 65.7242 331.993 66.4472 331.993 67.3417V103.727C331.993 108.123 332.527 112.177 333.582 115.774C334.637 119.38 336.114 122.635 337.97 125.448C339.827 128.261 342.027 130.728 344.505 132.778C346.963 134.818 349.63 136.522 352.431 137.842C355.222 139.158 358.15 140.148 361.135 140.778C364.108 141.408 367.09 141.726 369.995 141.726H399.733C400.856 141.726 401.936 141.515 402.94 141.096C403.939 140.68 404.827 140.097 405.578 139.366C406.341 138.626 406.943 137.735 407.365 136.722C407.784 135.715 407.998 134.618 407.998 133.462V67.3417C407.998 66.4472 407.272 65.7242 406.38 65.7242Z" fill="#CE3023"/>
<path d="M537.219 66.7323C536.972 66.1219 536.378 65.7253 535.723 65.7253H516.997C516.567 65.7253 516.156 65.894 515.853 66.1978L486.641 95.4605H480.829V67.3399C480.829 66.4482 480.103 65.7253 479.212 65.7253H466.019C465.125 65.7253 464.402 66.4482 464.402 67.3399V140.11C464.402 141.004 465.125 141.727 466.019 141.727H479.212C480.103 141.727 480.829 141.004 480.829 140.11V111.989H486.641L515.853 141.252C516.156 141.556 516.567 141.727 516.997 141.727H535.723C536.378 141.727 536.972 141.328 537.219 140.717C537.467 140.11 537.321 139.409 536.848 138.951L500.64 103.725L536.848 68.4988C537.321 68.0403 537.467 67.3427 537.219 66.7323Z" fill="#CE3023"/>
<path d="M598.257 117.61C598.766 117.532 599.281 117.442 599.799 117.337C601.756 116.941 603.72 116.297 605.635 115.419C607.548 114.544 609.408 113.411 611.154 112.055C612.932 110.677 614.521 108.994 615.877 107.062C617.233 105.129 618.322 102.871 619.115 100.353C619.905 97.8384 620.305 94.9608 620.305 91.7991V83.3773C620.305 81.6023 620.001 79.6867 619.399 77.6839C618.786 75.6361 617.768 73.7065 616.381 71.9456C614.977 70.1679 613.137 68.6742 610.915 67.5068C608.662 66.3254 605.897 65.7235 602.704 65.7235H552.618C551.459 65.7235 550.365 65.9372 549.358 66.3564C548.342 66.7783 547.453 67.3803 546.714 68.1426C545.982 68.8936 545.4 69.7825 544.986 70.7783C544.564 71.7825 544.354 72.8626 544.354 73.9878V140.111C544.354 141.002 545.076 141.725 545.968 141.725H559.163C560.055 141.725 560.781 141.002 560.781 140.111V82.1508H602.704C602.924 82.1508 603.166 82.1649 603.419 82.193C603.464 82.1958 603.531 82.2099 603.624 82.269C603.638 82.2802 603.692 82.3421 603.756 82.4715C603.768 82.4996 603.877 82.75 603.877 83.4785V91.7991C603.877 93.3068 603.644 94.6486 603.185 95.785C602.733 96.8989 602.086 97.8609 601.261 98.6457C600.415 99.4474 599.388 100.1 598.212 100.578C597.017 101.065 595.672 101.374 594.212 101.501H564.44C563.549 101.501 562.826 102.224 562.826 103.115V116.311C562.826 117.202 563.549 117.925 564.44 117.925H573.329L600.378 141.332C600.671 141.588 601.048 141.725 601.436 141.725H621.835C622.51 141.725 623.115 141.306 623.351 140.673C623.585 140.04 623.405 139.329 622.893 138.887L598.257 117.61Z" fill="#CE3023"/>
<path d="M699.674 65.7242H640.251C639.095 65.7242 637.998 65.938 636.991 66.3571C635.978 66.7791 635.089 67.3782 634.347 68.1433C633.613 68.8972 633.03 69.7833 632.617 70.779C632.198 71.7861 631.987 72.8662 631.987 73.9886V121.589C631.987 125.257 632.67 128.418 634.023 130.992C635.357 133.529 637.053 135.633 639.064 137.237C641.064 138.834 643.272 139.996 645.626 140.697C647.93 141.38 650.099 141.726 652.074 141.726H699.674C700.565 141.726 701.291 141.003 701.291 140.112V126.916C701.291 126.024 700.565 125.302 699.674 125.302H652.175C650.87 125.302 649.905 124.998 649.311 124.404C648.707 123.799 648.414 122.88 648.414 121.589V82.1516H699.674C700.565 82.1516 701.291 81.4287 701.291 80.5342V67.3417C701.291 66.4472 700.565 65.7242 699.674 65.7242Z" fill="#CE3023"/>
<path d="M772.193 109.662C772.193 112.053 771.814 114.236 771.06 116.152C770.317 118.048 769.254 119.685 767.904 121.021C766.545 122.365 764.894 123.423 762.992 124.168C761.08 124.92 758.914 125.299 756.557 125.299H729.094V82.1493H756.557C758.911 82.1493 761.08 82.5319 762.992 83.2829C764.894 84.0283 766.545 85.086 767.904 86.4277C769.254 87.7639 770.317 89.4122 771.06 91.3194C771.811 93.2547 772.193 95.429 772.193 97.7891V109.662ZM779.468 74.7964C776.618 71.9666 773.198 69.7247 769.296 68.127C765.397 66.5321 761.111 65.7248 756.557 65.7248H720.931C719.778 65.7248 718.678 65.9357 717.671 66.3548C716.655 66.7796 715.767 67.3816 715.03 68.141C714.295 68.8949 713.713 69.781 713.3 70.7767C712.881 71.7809 712.667 72.8611 712.667 73.9891V133.462C712.667 134.621 712.881 135.718 713.3 136.722C713.716 137.727 714.307 138.613 715.044 139.35C715.781 140.09 716.667 140.677 717.671 141.094C718.678 141.513 719.775 141.727 720.931 141.727H756.557C761.111 141.727 765.397 140.917 769.296 139.322C773.198 137.727 776.618 135.485 779.468 132.655C782.311 129.825 784.573 126.413 786.188 122.509C787.802 118.61 788.621 114.287 788.621 109.662V97.7891C788.621 93.1984 787.802 88.8834 786.188 84.9678C784.573 81.0467 782.311 77.6233 779.468 74.7964Z" fill="#CE3023"/>
<path d="M815.214 65.7242H802.021C801.127 65.7242 800.404 66.4472 800.404 67.3417V140.112C800.404 141.003 801.127 141.726 802.021 141.726H815.214C816.106 141.726 816.831 141.003 816.831 140.112V67.3417C816.831 66.4472 816.106 65.7242 815.214 65.7242Z" fill="#CE3023"/>
<path d="M898.383 65.7242H826.983C826.091 65.7242 825.368 66.4472 825.368 67.3417V80.5342C825.368 81.4287 826.091 82.1516 826.983 82.1516H854.496V140.112C854.496 141.003 855.219 141.726 856.11 141.726H869.306C870.197 141.726 870.923 141.003 870.923 140.112V82.1516H898.383C899.274 82.1516 900 81.4287 900 80.5342V67.3417C900 66.4472 899.274 65.7242 898.383 65.7242Z" fill="#CE3023"/>
<path d="M668.949 115.151L686.831 104.827C687.793 104.27 687.793 102.881 686.831 102.324L668.949 92.0005C667.985 91.4435 666.781 92.1383 666.781 93.2522V96.2395H655.833V110.912H666.781V113.899C666.781 115.013 667.985 115.708 668.949 115.151Z" fill="#CE3023"/>
<path d="M0 264.708H19.5187V161.362H0V264.708Z" fill="#204D84"/>
<path d="M124.029 232.768L57.0141 162.861C55.6189 161.416 53.9255 160.493 51.979 160.119C50.0381 159.747 48.1225 159.936 46.2632 160.69C44.5276 161.483 43.0818 162.704 41.9622 164.316C40.8427 165.936 40.2717 167.77 40.2717 169.764V264.708H59.7904V193.3L126.802 263.274C127.753 264.275 128.858 265.012 130.088 265.465C131.303 265.909 132.524 266.134 133.716 266.134C135.058 266.134 136.344 265.884 137.542 265.383C138.737 264.885 139.787 264.191 140.659 263.319C141.531 262.447 142.237 261.4 142.76 260.208C143.283 259.012 143.547 257.698 143.547 256.303V161.359H124.029V232.768Z" fill="#204D84"/>
<path d="M223.972 245.188H183.534V180.879H223.972C227.511 180.879 230.779 181.456 233.688 182.595C236.588 183.734 239.114 185.355 241.201 187.416C243.285 189.478 244.917 192.007 246.056 194.927C247.195 197.858 247.772 201.138 247.772 204.679V221.388C247.772 224.977 247.195 228.268 246.056 231.174C244.917 234.074 243.285 236.589 241.201 238.651C239.114 240.713 236.588 242.336 233.688 243.472C230.782 244.611 227.513 245.188 223.972 245.188ZM254.939 173.602C251.103 169.791 246.487 166.764 241.218 164.609C235.949 162.452 230.146 161.36 223.972 161.36H173.846C172.456 161.36 171.148 161.614 169.95 162.112C168.749 162.609 167.7 163.321 166.828 164.218C165.956 165.116 165.261 166.173 164.766 167.366C164.268 168.562 164.015 169.847 164.015 171.192V254.876C164.015 256.268 164.268 257.579 164.766 258.771C165.264 259.967 165.959 261.016 166.833 261.891C167.705 262.763 168.755 263.461 169.95 263.956C171.146 264.453 172.456 264.707 173.846 264.707H223.972C230.146 264.707 235.947 263.615 241.218 261.458C246.487 259.303 251.105 256.276 254.939 252.465C258.776 248.653 261.825 244.049 264.005 238.777C266.185 233.506 267.291 227.655 267.291 221.388V204.679C267.291 198.46 266.185 192.623 264.005 187.326C261.825 182.03 258.773 177.414 254.939 173.602Z" fill="#204D84"/>
<path d="M324.651 179.452H349.784C353.278 179.452 356.521 180.028 359.43 181.168C362.327 182.304 364.844 183.927 366.906 185.989C368.965 188.051 370.588 190.565 371.725 193.466C372.864 196.371 373.443 199.665 373.443 203.252V222.815C373.443 226.405 372.864 229.699 371.725 232.601C370.588 235.504 368.954 238.019 366.872 240.078C364.785 242.14 362.256 243.763 359.356 244.9C356.453 246.039 353.185 246.615 349.641 246.615H324.651C321.106 246.615 317.838 246.039 314.935 244.9C312.035 243.763 309.506 242.14 307.422 240.078C305.337 238.016 303.703 235.502 302.567 232.601C301.427 229.701 300.851 226.407 300.851 222.815V203.252C300.851 199.662 301.427 196.368 302.567 193.466C303.703 190.565 305.337 188.051 307.422 185.989C309.506 183.927 312.035 182.304 314.935 181.168C317.841 180.028 321.109 179.452 324.651 179.452ZM380.681 172.175C376.847 168.363 372.242 165.336 366.996 163.182C361.75 161.024 355.961 159.933 349.784 159.933H324.651C318.474 159.933 312.673 161.024 307.405 163.182C302.133 165.336 297.517 168.363 293.681 172.175C289.847 175.986 286.795 180.602 284.617 185.899C282.437 191.19 281.332 197.027 281.332 203.252V222.815C281.332 229.088 282.437 234.939 284.617 240.208C286.795 245.476 289.844 250.095 293.681 253.929C297.517 257.766 302.133 260.792 307.408 262.922C312.676 265.054 318.479 266.137 324.651 266.137H349.784C355.956 266.137 361.747 265.054 366.993 262.922C372.239 260.792 376.847 257.766 380.684 253.929C384.518 250.092 387.556 245.476 389.713 240.205C391.868 234.933 392.962 229.083 392.962 222.815V203.252C392.962 197.032 391.868 191.193 389.713 185.899C387.556 180.602 384.518 175.986 380.681 172.175Z" fill="#204D84"/>
<path d="M494.114 232.768L427.099 162.861C425.704 161.416 424.011 160.493 422.064 160.119C420.123 159.747 418.208 159.936 416.348 160.69C414.613 161.483 413.167 162.704 412.047 164.316C410.928 165.936 410.357 167.77 410.357 169.764V264.708H429.876V193.3L496.887 263.274C497.838 264.275 498.944 265.012 500.173 265.465C501.388 265.909 502.609 266.134 503.802 266.134C505.143 266.134 506.429 265.884 507.627 265.383C508.823 264.885 509.872 264.191 510.744 263.319C511.616 262.447 512.322 261.4 512.845 260.208C513.368 259.012 513.633 257.698 513.633 256.303V161.359H494.114V232.768Z" fill="#204D84"/>
<path d="M619.382 203.204H559.805V222.867H619.382V203.204Z" fill="#204D84"/>
<path d="M539.749 162.111C538.55 162.612 537.498 163.321 536.626 164.218C535.754 165.115 535.062 166.176 534.565 167.366C534.067 168.561 533.813 169.847 533.813 171.191V238.167C533.813 243.033 534.708 247.204 536.474 250.563C538.233 253.916 540.463 256.681 543.099 258.782C545.729 260.884 548.629 262.414 551.72 263.331C554.795 264.245 557.675 264.706 560.283 264.706H627.736V245.188H560.424C558.092 245.188 556.308 244.586 555.121 243.401C553.934 242.214 553.332 240.454 553.332 238.167V180.879H627.736V161.36H543.645C542.255 161.36 540.944 161.613 539.749 162.111Z" fill="#204D84"/>
<path d="M738.577 216.261C737.01 213.996 735.187 212.027 733.162 210.413C731.142 208.801 728.987 207.448 726.751 206.39C724.512 205.333 722.234 204.539 719.975 204.036C717.719 203.532 715.55 203.251 713.514 203.203H670.673C667.3 203.203 664.642 202.207 662.772 200.244C660.893 198.275 659.939 195.538 659.939 192.112C659.939 188.731 660.893 185.98 662.774 183.938C664.648 181.91 667.303 180.88 670.673 180.88H734.343V161.361H670.673C667.638 161.361 664.324 161.907 660.819 162.987C657.303 164.073 653.995 165.853 650.986 168.287C647.973 170.723 645.433 173.921 643.436 177.791C641.436 181.673 640.42 186.492 640.42 192.112C640.42 197.732 641.436 202.562 643.436 206.469C645.433 210.365 647.973 213.566 650.988 215.977C653.993 218.382 657.301 220.151 660.819 221.237C664.324 222.317 667.638 222.865 670.673 222.865H713.37C715.016 222.865 716.529 223.141 717.868 223.687C719.201 224.23 720.346 225.006 721.269 225.996C722.197 226.995 722.92 228.19 723.421 229.549C723.921 230.919 724.177 232.449 724.177 234.097C724.177 237.478 723.224 240.201 721.342 242.196C719.471 244.182 716.788 245.189 713.37 245.189H641.278V264.707H713.37C715.395 264.707 717.578 264.463 719.86 263.984C722.144 263.503 724.425 262.747 726.639 261.737C728.85 260.724 731.018 259.411 733.086 257.824C735.162 256.229 736.999 254.272 738.543 252.002C740.087 249.737 741.345 247.087 742.281 244.131C743.221 241.172 743.696 237.796 743.696 234.097C743.696 230.404 743.232 227.04 742.318 224.103C741.404 221.166 740.143 218.528 738.577 216.261Z" fill="#204D84"/>
<path d="M758.309 264.708H777.827V161.362H758.309V264.708Z" fill="#204D84"/>
<path d="M827.147 186.395C825.667 186.395 824.463 187.599 824.463 189.079C824.463 190.558 825.667 191.762 827.147 191.762C828.626 191.762 829.83 190.558 829.83 189.079C829.83 187.599 828.626 186.395 827.147 186.395Z" fill="#204D84"/>
<path d="M850.402 176.556C848.923 176.556 847.719 177.76 847.719 179.24C847.719 180.719 848.923 181.923 850.402 181.923C851.882 181.923 853.086 180.719 853.086 179.24C853.086 177.76 851.882 176.556 850.402 176.556Z" fill="#204D84"/>
<path d="M819.097 201.601C817.618 201.601 816.414 202.804 816.414 204.284C816.414 205.764 817.618 206.968 819.097 206.968C820.577 206.968 821.778 205.764 821.778 204.284C821.778 202.804 820.577 201.601 819.097 201.601Z" fill="#204D84"/>
<path d="M834.302 217.7C832.822 217.7 831.621 218.904 831.621 220.384C831.621 221.863 832.822 223.067 834.302 223.067C835.782 223.067 836.985 221.863 836.985 220.384C836.985 218.904 835.782 217.7 834.302 217.7Z" fill="#204D84"/>
<path d="M882.025 206.292H861.736V220.384C861.736 221.372 860.934 222.173 859.947 222.173H840.299C839.528 224.756 837.131 226.643 834.302 226.643C830.85 226.643 828.04 223.836 828.04 220.384C828.04 216.93 830.85 214.123 834.302 214.123C837.134 214.123 839.528 216.013 840.299 218.595H858.158V206.292H825.022C824.181 208.762 821.846 210.545 819.098 210.545C815.644 210.545 812.836 207.735 812.836 204.283C812.836 200.832 815.644 198.022 819.098 198.022C822.006 198.022 824.451 200.019 825.151 202.714H844.465V190.579H833.219C832.544 193.307 830.082 195.338 827.146 195.338C823.694 195.338 820.887 192.531 820.887 189.077C820.887 185.625 823.694 182.818 827.146 182.818C829.871 182.818 832.186 184.568 833.047 187.001H846.254C847.241 187.001 848.043 187.8 848.043 188.79V202.714H870.38V181.029H856.4C855.629 183.611 853.232 185.502 850.403 185.502C846.948 185.502 844.141 182.692 844.141 179.24C844.141 175.789 846.948 172.979 850.403 172.979C853.232 172.979 855.629 174.869 856.4 177.451H872.169C873.156 177.451 873.958 178.253 873.958 179.24V202.714H882.025C883.013 202.714 883.814 203.515 883.814 204.503C883.814 205.49 883.013 206.292 882.025 206.292ZM899.249 167.367C898.751 166.171 898.042 165.108 897.145 164.214C896.247 163.316 895.187 162.61 893.991 162.112C892.796 161.614 891.51 161.361 890.169 161.361H848.324C840.92 161.361 833.989 162.644 827.725 165.178C821.461 167.716 815.953 171.305 811.36 175.851C806.763 180.399 803.126 185.904 800.544 192.216C797.962 198.528 796.651 205.532 796.651 213.034V264.707H816.172V239.574H880.478V264.707H900V171.192C900 169.851 899.747 168.562 899.249 167.367Z" fill="#204D84"/>
</svg>