<svg xmlns:xlink="http://www.w3.org/1999/xlink"  width="24" height="25" viewBox="0 0 24 25" fill="none" xmlns="http://www.w3.org/2000/svg">
<path d="M12.02 21.0299C9.68999 21.0299 7.35999 20.6599 5.14999 19.9199C4.30999 19.6299 3.66999 19.0399 3.38999 18.2699C3.09999 17.4999 3.19999 16.6499 3.65999 15.8899L4.80999 13.9799C5.04999 13.5799 5.26999 12.7799 5.26999 12.3099V9.41992C5.26999 5.69992 8.29999 2.66992 12.02 2.66992C15.74 2.66992 18.77 5.69992 18.77 9.41992V12.3099C18.77 12.7699 18.99 13.5799 19.23 13.9899L20.37 15.8899C20.8 16.6099 20.88 17.4799 20.59 18.2699C20.3 19.0599 19.67 19.6599 18.88 19.9199C16.68 20.6599 14.35 21.0299 12.02 21.0299ZM12.02 4.16992C9.12999 4.16992 6.76999 6.51992 6.76999 9.41992V12.3099C6.76999 13.0399 6.46999 14.1199 6.09999 14.7499L4.94999 16.6599C4.72999 17.0299 4.66999 17.4199 4.79999 17.7499C4.91999 18.0899 5.21999 18.3499 5.62999 18.4899C9.80999 19.8899 14.24 19.8899 18.42 18.4899C18.78 18.3699 19.06 18.0999 19.19 17.7399C19.32 17.3799 19.29 16.9899 19.09 16.6599L17.94 14.7499C17.56 14.0999 17.27 13.0299 17.27 12.2999V9.41992C17.27 6.51992 14.92 4.16992 12.02 4.16992Z" fill="#686E76"/>
<path d="M13.88 4.43993C13.81 4.43993 13.74 4.42993 13.67 4.40993C13.38 4.32993 13.1 4.26993 12.83 4.22993C11.98 4.11993 11.16 4.17993 10.39 4.40993C10.11 4.49993 9.80999 4.40993 9.61999 4.19993C9.42999 3.98993 9.36999 3.68993 9.47999 3.41993C9.88999 2.36993 10.89 1.67993 12.03 1.67993C13.17 1.67993 14.17 2.35993 14.58 3.41993C14.68 3.68993 14.63 3.98993 14.44 4.19993C14.29 4.35993 14.08 4.43993 13.88 4.43993Z" fill="#686E76"/>
<path d="M12.02 23.3101C11.03 23.3101 10.07 22.9101 9.36999 22.2101C8.66999 21.5101 8.26999 20.5501 8.26999 19.5601H9.76999C9.76999 20.1501 10.01 20.7301 10.43 21.1501C10.85 21.5701 11.43 21.8101 12.02 21.8101C13.26 21.8101 14.27 20.8001 14.27 19.5601H15.77C15.77 21.6301 14.09 23.3101 12.02 23.3101Z" fill="#686E76"/>
</svg>
