<svg
  width="73"
  height="315"
  viewBox="0 0 73 315"
  fill="none"
  xmlns="http://www.w3.org/2000/svg">
  <path
    opacity="0.05"
    d="M69.1681 111.297L-26.3775 179.778C-27.2483 180.403 -28.2337 180.85 -29.2775 181.094C-30.3212 181.338 -31.4028 181.374 -32.4603 181.199C-33.5178 181.025 -34.5306 180.643 -35.4407 180.077C-36.3507 179.511 -37.1403 178.771 -37.7642 177.9L-106.243 82.3577C-107.185 81.0459 -107.716 79.4843 -107.769 77.8705C-107.823 76.2566 -107.396 74.6632 -106.544 73.2918C-105.692 71.9204 -104.451 70.8327 -102.981 70.1664C-101.51 69.5001 -99.8742 69.2851 -98.2811 69.5486L-24.324 81.7499L-12.1199 7.79319C-11.8577 6.19991 -11.1287 4.72021 -10.0252 3.54137C-8.92166 2.36254 -7.49326 1.53757 -5.92072 1.17087C-4.34817 0.804159 -2.70219 0.912204 -1.19111 1.48133C0.319968 2.05046 1.62823 3.05508 2.56807 4.36805L71.0471 99.9101C72.3079 101.669 72.8183 103.857 72.4659 105.992C72.1135 108.128 70.9272 110.036 69.1681 111.297ZM-29.2655 161.741L53.0107 102.77L0.778463 29.8954L-9.54295 92.4628C-9.71707 93.5208 -10.098 94.5342 -10.6639 95.4449C-11.2299 96.3556 -11.9698 97.1459 -12.8413 97.7706C-13.7128 98.3952 -14.6989 98.842 -15.7432 99.0854C-16.7874 99.3288 -17.8694 99.364 -18.9273 99.189L-81.4977 88.8662L-29.2655 161.741Z"
    fill="white"
  />
  <path
    opacity="0.05"
    d="M43.3197 231.908L-28.0553 180.75C-28.7058 180.284 -29.442 179.95 -30.2217 179.767C-31.0014 179.585 -31.8093 179.559 -32.5993 179.689C-33.3893 179.819 -34.1459 180.104 -34.8257 180.527C-35.5056 180.95 -36.0954 181.503 -36.5615 182.154L-87.7171 253.526C-88.4204 254.506 -88.8171 255.673 -88.8571 256.878C-88.8971 258.084 -88.5785 259.274 -87.9417 260.299C-87.3049 261.323 -86.3785 262.136 -85.2797 262.633C-84.181 263.131 -82.9592 263.292 -81.7692 263.095L-26.5213 253.98L-17.4045 309.228C-17.2086 310.418 -16.664 311.523 -15.8397 312.404C-15.0153 313.285 -13.9483 313.901 -12.7736 314.175C-11.5988 314.449 -10.3692 314.368 -9.24042 313.943C-8.1116 313.518 -7.1343 312.767 -6.43221 311.786L44.7234 240.414C45.6653 239.1 46.0465 237.466 45.7833 235.87C45.52 234.275 44.6339 232.85 43.3197 231.908ZM-30.2127 194.225L31.2497 238.278L-7.76909 292.717L-15.4795 245.977C-15.6095 245.187 -15.8941 244.43 -16.3169 243.75C-16.7396 243.069 -17.2923 242.479 -17.9434 242.012C-18.5944 241.546 -19.3311 241.212 -20.1112 241.03C-20.8913 240.848 -21.6995 240.822 -22.4898 240.953L-69.2315 248.664L-30.2127 194.225Z"
    fill="white"
  />
</svg>