<svg
  width="90"
  height="154"
  viewBox="0 0 90 154"
  fill="none"
  xmlns="http://www.w3.org/2000/svg">
  <path
    opacity="0.05"
    d="M70.1652 25.0689C68.6817 26.1322 66.8364 26.5623 65.0352 26.2648C63.234 25.9672 61.6245 24.9662 60.5608 23.4821C57.797 19.6261 53.6154 17.0255 48.9357 16.2524C44.256 15.4792 39.4616 16.5969 35.6073 19.3595C31.753 22.122 29.1543 26.3032 28.3832 30.9833C27.612 35.6633 28.7314 40.4587 31.4951 44.3147C32.0472 45.0478 32.4471 45.8839 32.6714 46.7738C32.8958 47.6637 32.94 48.5893 32.8014 49.4964C32.6629 50.4034 32.3444 51.2736 31.8648 52.0556C31.3851 52.8376 30.7539 53.5158 30.0082 54.0502C29.2626 54.5846 28.4176 54.9645 27.5229 55.1676C26.6282 55.3706 25.7019 55.3927 24.7985 55.2325C23.895 55.0723 23.0326 54.733 22.2619 54.2347C21.4913 53.7364 20.828 53.0891 20.311 52.3308C15.5282 45.501 13.6312 37.0611 15.0316 28.8434C16.432 20.6257 21.017 13.2933 27.7911 8.43803C34.5653 3.5827 42.9819 1.59629 51.2139 2.91001C59.446 4.22373 66.829 8.73154 71.7603 15.4549C72.2878 16.1908 72.665 17.0235 72.8703 17.9053C73.0756 18.787 73.105 19.7006 72.9569 20.5936C72.8087 21.4866 72.4859 22.3416 72.0068 23.1095C71.5278 23.8774 70.902 24.5433 70.1652 25.0689Z"
    fill="white"
  />
  <path
    opacity="0.05"
    d="M150.312 94.0875L69.5389 151.981C68.8027 152.509 67.9696 152.887 67.0873 153.093C66.2049 153.299 65.2906 153.33 64.3966 153.182C63.5026 153.035 62.6464 152.712 61.877 152.234C61.1076 151.755 60.4402 151.13 59.9127 150.393L2.02133 69.6228C1.22544 68.5138 0.776453 67.1936 0.731198 65.8293C0.685944 64.465 1.04644 63.1179 1.76709 61.9585C2.48774 60.7992 3.53614 59.8797 4.77958 59.3164C6.02302 58.7531 7.40562 58.5713 8.75238 58.7941L71.2749 69.1089L81.5921 6.58675C81.8138 5.23981 82.4301 3.98889 83.363 2.99231C84.2959 1.99574 85.5034 1.29832 86.8328 0.988311C88.1622 0.678304 89.5537 0.76964 90.8312 1.25078C92.1086 1.73191 93.2146 2.58121 94.0092 3.69118L151.901 84.4613C152.966 85.9484 153.398 87.798 153.1 89.6033C152.802 91.4086 151.799 93.0216 150.312 94.0875ZM67.0974 136.732L136.653 86.8789L92.4962 25.2717L83.7706 78.1655C83.6234 79.0599 83.3014 79.9166 82.823 80.6865C82.3445 81.4564 81.719 82.1245 80.9823 82.6526C80.2455 83.1807 79.4119 83.5584 78.529 83.7641C77.6462 83.9699 76.7315 83.9996 75.8372 83.8517L22.9409 75.125L67.0974 136.732Z"
    fill="white"
  />
</svg>