<svg width="32" height="33" viewBox="0 0 32 33" fill="none" xmlns="http://www.w3.org/2000/svg">
<path opacity="0.4" d="M28.4935 15.6868V23.6735C28.4935 27.3535 25.5068 30.3401 21.8268 30.3401H10.1735C6.4935 30.3401 3.50684 27.3535 3.50684 23.6735V15.7801C4.52017 16.8735 5.96017 17.5001 7.52017 17.5001C9.20017 17.5001 10.8135 16.6601 11.8268 15.3135C12.7335 16.6601 14.2802 17.5001 16.0002 17.5001C17.7068 17.5001 19.2268 16.7001 20.1468 15.3668C21.1735 16.6868 22.7602 17.5001 24.4135 17.5001C26.0268 17.5001 27.4935 16.8468 28.4935 15.6868Z" fill="#009EA9"/>
<path d="M19.9868 2.16663H11.9868L11.0001 11.98C10.9201 12.8866 11.0535 13.74 11.3868 14.5133C12.1601 16.3266 13.9735 17.5 16.0001 17.5C18.0535 17.5 19.8268 16.3533 20.6268 14.5266C20.8668 13.9533 21.0135 13.2866 21.0268 12.6066V12.3533L19.9868 2.16663Z" fill="#009EA9"/>
<path opacity="0.6" d="M29.8132 11.5266L29.4265 7.83329C28.8665 3.80663 27.0399 2.16663 23.1332 2.16663H18.0132L18.9998 12.1666C19.0132 12.3 19.0265 12.4466 19.0265 12.7C19.1065 13.3933 19.3198 14.0333 19.6398 14.6066C20.5998 16.3666 22.4665 17.5 24.4132 17.5C26.1865 17.5 27.7865 16.7133 28.7865 15.3266C29.5865 14.26 29.9465 12.9133 29.8132 11.5266Z" fill="#009EA9"/>
<path opacity="0.6" d="M8.78669 2.16663C4.86669 2.16663 3.05335 3.80663 2.48002 7.87329L2.12002 11.54C1.98669 12.9666 2.37336 14.3533 3.21336 15.4333C4.22669 16.7533 5.78669 17.5 7.52002 17.5C9.46669 17.5 11.3334 16.3666 12.28 14.6333C12.6267 14.0333 12.8534 13.34 12.92 12.62L13.96 2.17996H8.78669V2.16663Z" fill="#009EA9"/>
<path d="M15.1335 22.7134C13.4402 22.8867 12.1602 24.3267 12.1602 26.0334V30.34H19.8268V26.5C19.8402 23.7134 18.2002 22.3934 15.1335 22.7134Z" fill="#009EA9"/>
</svg>
