<svg width="20" height="20" viewBox="0 0 20 20" fill="none" xmlns="http://www.w3.org/2000/svg">
<path d="M13.4917 1.6665H6.51673C3.48339 1.6665 1.67505 3.47484 1.67505 6.50817V13.4832C1.67505 16.5165 3.48339 18.3248 6.51673 18.3248H13.4917C16.5251 18.3248 18.3334 16.5165 18.3334 13.4832V6.50817C18.3334 3.47484 16.5251 1.6665 13.4917 1.6665Z" fill="#444B55"/>
<path d="M6.81666 13.975C6.79999 13.975 6.775 13.975 6.75833 13.975C5.95 13.9 5.19167 13.525 4.625 12.925C3.29167 11.525 3.29167 9.25005 4.625 7.85005L6.45 5.93336C7.1 5.25003 7.975 4.8667 8.90833 4.8667C9.84167 4.8667 10.7167 5.2417 11.3667 5.93336C12.7 7.33336 12.7 9.60836 11.3667 11.0084L10.4583 11.9667C10.2167 12.2167 9.825 12.225 9.575 11.9917C9.325 11.75 9.31667 11.3584 9.55 11.1084L10.4583 10.15C11.3417 9.22503 11.3417 7.71671 10.4583 6.80004C9.63333 5.93337 8.18334 5.93337 7.35 6.80004L5.525 8.7167C4.64167 9.6417 4.64167 11.15 5.525 12.0667C5.88334 12.45 6.36666 12.6834 6.875 12.7334C7.21666 12.7667 7.46666 13.075 7.43333 13.4167C7.40833 13.7334 7.13332 13.975 6.81666 13.975Z" fill="#F9FAFA"/>
<path d="M11.0916 15.1333C10.1583 15.1333 9.2833 14.7583 8.6333 14.0666C7.29997 12.6666 7.29997 10.3916 8.6333 8.99159L9.54163 8.03326C9.7833 7.78326 10.175 7.7749 10.425 8.00824C10.675 8.2499 10.6833 8.64159 10.45 8.89159L9.54163 9.84992C8.6583 10.7749 8.6583 12.2832 9.54163 13.1999C10.3666 14.0666 11.8166 14.0749 12.65 13.1999L14.475 11.2833C15.3583 10.3583 15.3583 8.84991 14.475 7.93324C14.1166 7.54991 13.6333 7.31658 13.125 7.26658C12.7833 7.23325 12.5333 6.92491 12.5666 6.58324C12.6 6.24158 12.9 5.98326 13.25 6.02492C14.0583 6.10826 14.8166 6.47491 15.3833 7.07491C16.7166 8.47491 16.7166 10.7499 15.3833 12.1499L13.5583 14.0666C12.9 14.7583 12.025 15.1333 11.0916 15.1333Z" fill="#F9FAFA"/>
</svg>