<svg width="13" height="13" viewBox="0 0 13 13" fill="none" xmlns="http://www.w3.org/2000/svg">
<path opacity="0.4" d="M10.9349 6.19499V9.18999C10.9349 10.57 9.81494 11.69 8.43494 11.69H4.06494C2.68494 11.69 1.56494 10.57 1.56494 9.18999V6.22999C1.94494 6.63999 2.48494 6.87499 3.06994 6.87499C3.69994 6.87499 4.30494 6.55999 4.68494 6.05499C5.02494 6.55999 5.60494 6.87499 6.24994 6.87499C6.88994 6.87499 7.45994 6.57499 7.80494 6.07499C8.18994 6.56999 8.78494 6.87499 9.40494 6.87499C10.0099 6.87499 10.5599 6.62999 10.9349 6.19499Z" fill="#0092AC"/>
<path d="M7.74517 1.125H4.74517L4.37517 4.805C4.34517 5.145 4.39517 5.465 4.52017 5.755C4.81017 6.435 5.49017 6.875 6.25017 6.875C7.02017 6.875 7.68517 6.445 7.98517 5.76C8.07517 5.545 8.13017 5.295 8.13517 5.04V4.945L7.74517 1.125Z" fill="#0092AC"/>
<path opacity="0.6" d="M11.4299 4.635L11.2849 3.25C11.0749 1.74 10.3899 1.125 8.92488 1.125H7.00488L7.37488 4.875C7.37988 4.925 7.38488 4.98 7.38488 5.075C7.41488 5.335 7.49488 5.575 7.61488 5.79C7.97488 6.45 8.67488 6.875 9.40488 6.875C10.0699 6.875 10.6699 6.58 11.0449 6.06C11.3449 5.66 11.4799 5.155 11.4299 4.635Z" fill="#0092AC"/>
<path opacity="0.6" d="M3.54483 1.125C2.07483 1.125 1.39482 1.74 1.17982 3.265L1.04482 4.64C0.994825 5.175 1.13983 5.695 1.45483 6.1C1.83483 6.595 2.41982 6.875 3.06982 6.875C3.79982 6.875 4.49983 6.45 4.85483 5.8C4.98483 5.575 5.06982 5.315 5.09482 5.045L5.48483 1.13H3.54483V1.125Z" fill="#0092AC"/>
<path d="M5.92506 8.83C5.29006 8.895 4.81006 9.435 4.81006 10.075V11.69H7.68506V10.25C7.69006 9.205 7.07506 8.71 5.92506 8.83Z" fill="#0092AC"/>
</svg>