<svg width="21" height="20" viewBox="0 0 21 20" fill="none" xmlns="http://www.w3.org/2000/svg">
<path fill-rule="evenodd" clip-rule="evenodd" d="M10.5 19.375C15.3325 19.375 19.25 15.4575 19.25 10.625C19.25 5.79251 15.3325 1.875 10.5 1.875C5.66751 1.875 1.75 5.79251 1.75 10.625C1.75 12.1943 2.16312 13.6671 2.88655 14.9406L1.75 19.375L6.32179 18.3149C7.56336 18.9909 8.98682 19.375 10.5 19.375ZM10.5 18.0288C14.589 18.0288 17.9038 14.714 17.9038 10.625C17.9038 6.53597 14.589 3.22115 10.5 3.22115C6.41097 3.22115 3.09615 6.53597 3.09615 10.625C3.09615 12.2038 3.59031 13.6672 4.4324 14.8689L3.76923 17.3558L6.29996 16.7231C7.49335 17.5466 8.94036 18.0288 10.5 18.0288Z" fill="#BFC8D0"/>
<path d="M18 10C18 14.1421 14.6421 17.5 10.5 17.5C8.9201 17.5 7.4543 17.0115 6.24541 16.1773L3.68182 16.8182L4.3536 14.299C3.50058 13.0817 3 11.5993 3 10C3 5.85786 6.35786 2.5 10.5 2.5C14.6421 2.5 18 5.85786 18 10Z" fill="url(#paint0_linear_4027_29557)"/>
<path fill-rule="evenodd" clip-rule="evenodd" d="M10.5 18.75C15.3325 18.75 19.25 14.8325 19.25 10C19.25 5.16751 15.3325 1.25 10.5 1.25C5.66751 1.25 1.75 5.16751 1.75 10C1.75 11.5693 2.16312 13.0421 2.88655 14.3156L1.75 18.75L6.32179 17.6899C7.56336 18.3659 8.98682 18.75 10.5 18.75ZM10.5 17.4038C14.589 17.4038 17.9038 14.089 17.9038 10C17.9038 5.91097 14.589 2.59615 10.5 2.59615C6.41097 2.59615 3.09615 5.91097 3.09615 10C3.09615 11.5788 3.59031 13.0422 4.4324 14.2439L3.76923 16.7308L6.29996 16.0981C7.49335 16.9216 8.94036 17.4038 10.5 17.4038Z" fill="white"/>
<path d="M8.31251 5.93737C8.10447 5.51951 7.78533 5.5565 7.46292 5.5565C6.88673 5.5565 5.98828 6.24668 5.98828 7.53116C5.98828 8.58386 6.45216 9.73621 8.01526 11.46C9.52378 13.1236 11.5059 13.9842 13.1514 13.9549C14.7969 13.9256 15.1354 12.5096 15.1354 12.0314C15.1354 11.8194 15.0039 11.7137 14.9133 11.685C14.3525 11.4158 13.3183 10.9144 13.083 10.8202C12.8477 10.726 12.7248 10.8534 12.6484 10.9227C12.435 11.1261 12.012 11.7254 11.8672 11.8602C11.7224 11.995 11.5064 11.9268 11.4166 11.8758C11.0859 11.7432 10.1893 11.3444 9.47467 10.6516C8.59083 9.7948 8.53896 9.50003 8.37244 9.23763C8.23922 9.02772 8.33698 8.89892 8.38576 8.84264C8.57619 8.62292 8.83913 8.28368 8.95705 8.1151C9.07496 7.94652 8.98135 7.69058 8.92518 7.53116C8.68361 6.84557 8.47895 6.27166 8.31251 5.93737Z" fill="white"/>
<defs>
<linearGradient id="paint0_linear_4027_29557" x1="17.0625" y1="4.375" x2="3" y2="17.5" gradientUnits="userSpaceOnUse">
<stop stop-color="#5BD066"/>
<stop offset="1" stop-color="#27B43E"/>
</linearGradient>
</defs>
</svg>