<svg width="17" height="17" viewBox="0 0 17 17" fill="none" xmlns="http://www.w3.org/2000/svg">
<path d="M2.38 0C1.06728 0 0 1.06728 0 2.38V14.28C0 15.5927 1.06728 16.66 2.38 16.66H14.28C15.5927 16.66 16.66 15.5927 16.66 14.28V2.38C16.66 1.06728 15.5927 0 14.28 0H2.38ZM13.4284 3.12375L9.56834 7.53419L14.1089 13.5362H10.5538L7.77219 9.89559L4.58522 13.5362H2.81881L6.94662 8.81716L2.59197 3.12375H6.23634L8.75394 6.45203L11.662 3.12375H13.4284ZM12.0227 12.4801L5.70456 4.12409H4.65216L11.041 12.4801H12.019H12.0227Z" fill="black"/>
</svg>